<svg xmlns="http://www.w3.org/2000/svg" xmlns:xlink="http://www.w3.org/1999/xlink" width="1197" height="188" viewBox="0 0 1197 188">
    <defs>
        <path id="a" d="M11.539.01H.016v15.916h11.523V.01z"/>
        <path id="c" d="M.018.01h45.466V16.43H.018V.01z"/>
        <path id="e" d="M.012 61.715V.157h80.98v61.558H.012z"/>
    </defs>
    <g fill="none" fill-rule="evenodd">
        <g fill="#767E85">
            <path d="M867.907 123.324c-1.603 6.028-3.566 11.942-5.32 17.922-.203.689-.488.94-1.187.892-.978-.067-1.964-.029-2.946-.01-.365.006-.556-.097-.66-.492-1.61-6.074-3.438-12.09-4.563-18.292-.066-.074-.077-.26-.244-.13-.143 6.2-.52 12.39-.785 18.585-.023.52-.146.743-.702.726a82.284 82.284 0 0 0-3.954-.005c-.435.007-.572-.108-.542-.587.51-8.012 1.006-16.025 1.492-24.04.025-.402.143-.563.551-.56 2.157.014 4.315.018 6.472-.003.462-.004.537.274.636.626 1.516 5.358 3.186 10.672 4.202 16.168.03.164.08.323.177.703.174-.67.308-1.134.414-1.604 1.166-5.206 2.85-10.253 4.396-15.344.136-.444.36-.552.777-.548 2.013.018 4.026.03 6.04-.006.58-.01.717.209.744.759.346 6.933.711 13.865 1.072 20.797.053 1.036.097 2.073.162 3.108.024.372-.077.533-.469.529a136.13 136.13 0 0 0-4.458.004c-.542.011-.487-.345-.5-.676-.176-4.542-.352-9.084-.515-13.626-.059-1.628-.081-3.259-.12-4.888-.054-.074-.11-.088-.17-.008M950.309 126.303c2.675-2.582 5.882-3.161 8.685-1.667 1.514.807 2.592 2.056 3.217 3.66 1.357 3.484 1.31 6.977-.355 10.33-1.844 3.714-6.265 5.337-9.763 3.721-1.027-.475-1.811-1.24-2.557-2.364-.075.826-.15 1.428-.177 2.032-.018.385-.174.506-.533.502a116.801 116.801 0 0 0-3.74.003c-.442.009-.505-.194-.493-.58.261-8.401.067-16.805.11-25.208.003-.6.178-.743.728-.728 1.413.037 2.829.033 4.242.001.51-.01.649.165.645.676-.02 2.891-.01 5.784-.01 8.676v.946zm.03 7.098h-.02c0 .569-.027 1.139.005 1.705.09 1.583 1.167 2.902 2.614 3.24 1.524.355 3.083-.298 3.784-1.74 1.04-2.138 1.052-4.349.02-6.493a3.284 3.284 0 0 0-3.69-1.808c-1.465.325-2.566 1.586-2.704 3.17-.056.637-.01 1.284-.01 1.926zM913.66 126.341c.182-.145.259-.191.317-.255 1.93-2.141 4.29-2.76 6.941-1.876 2.574.859 3.572 3.03 3.985 5.593.166 1.032.132 2.07.133 3.107.002 2.966-.012 5.933.012 8.9.005.54-.118.73-.672.715-1.414-.04-2.83-.04-4.243 0-.558.015-.681-.188-.678-.724.022-3.016.011-6.033.01-9.049 0-.668-.023-1.333-.18-1.987-.386-1.616-1.437-2.43-2.967-2.286-1.46.137-2.629 1.385-2.647 2.923-.03 2.522-.01 5.043-.01 7.565 0 .989-.012 1.978.005 2.967.007.386-.072.59-.508.585-1.534-.02-3.069-.021-4.603 0-.446.007-.5-.209-.498-.587.013-1.706.006-3.412.006-5.118 0-6.675.007-13.35-.014-20.025-.002-.605.137-.808.746-.788a63.06 63.06 0 0 0 4.171 0c.594-.019.71.201.706.762-.025 2.893-.011 5.785-.011 8.678v.9zM937.491 140.66c-1.784 1.958-3.889 2.511-6.213 2.192-2.4-.328-4.13-1.98-4.636-4.247-.539-2.413.342-4.837 2.308-6.263 1.72-1.248 3.704-1.687 5.751-1.895.595-.06 1.195-.103 1.793-.096.452.005.52-.208.469-.595-.117-.888-.791-1.563-1.858-1.817-1.097-.261-2.193-.161-3.28.063-.896.184-1.769.459-2.574.909-.352.195-.493.113-.592-.26a70.7 70.7 0 0 0-.76-2.704c-.11-.359-.025-.545.3-.69 3.174-1.422 6.454-1.91 9.815-.937 2.702.783 4.041 2.848 4.424 5.627.098.707.118 1.427.135 2.142.08 3.332-.178 6.671.211 9.996.041.35-.085.43-.383.428-1.39-.006-2.78-.01-4.17.003-.347.003-.455-.182-.502-.485-.063-.407-.14-.812-.238-1.372zm-.327-5.33c0-.344-.005-.69.001-1.034.005-.275-.105-.412-.382-.394-1.194.078-2.392.142-3.477.741-1.13.625-1.58 1.83-1.145 3.004.371 1.002 1.496 1.493 2.71 1.184 1.565-.399 2.294-1.51 2.293-3.5zM886.338 140.693c-1.825 1.96-3.988 2.527-6.394 2.119-2.266-.384-3.823-1.746-4.376-4.058-.565-2.36-.02-4.48 1.847-6.086 1.75-1.505 3.88-1.974 6.075-2.215.595-.065 1.197-.118 1.793-.1.537.018.595-.233.519-.679-.146-.857-.816-1.507-1.845-1.74-1.099-.249-2.194-.155-3.283.072-.872.181-1.727.44-2.509.88-.447.25-.556.104-.663-.33a38.41 38.41 0 0 0-.723-2.561c-.124-.386-.053-.584.308-.747 3.127-1.411 6.364-1.868 9.682-.969 2.754.747 4.405 2.999 4.585 6.213.122 2.168.056 4.348.065 6.523.007 1.655-.02 3.313.224 4.955.066.446-.09.553-.49.548-1.246-.018-2.494-.04-3.738.008-.58.023-.83-.17-.865-.757-.019-.313-.119-.622-.212-1.076zm-.3-5.423c0-.296-.013-.592.004-.887.02-.336-.085-.51-.441-.483-1.168.09-2.343.15-3.409.734-1.147.63-1.617 1.896-1.147 3.063.395.982 1.54 1.449 2.744 1.12 1.554-.426 2.25-1.523 2.25-3.547zM983.028 135.19c-1.726 0-3.452.014-5.177-.01-.502-.006-.627.136-.477.638.303 1.014.943 1.7 1.839 2.164 1.55.803 3.206.722 4.86.583.885-.075 1.76-.236 2.604-.531.395-.14.602-.112.676.394a40 40 0 0 0 .526 2.762c.092.42-.016.632-.422.764-3.223 1.046-6.488 1.4-9.76.37-3.285-1.033-5.118-3.44-5.618-6.909-.457-3.178.141-6.112 2.183-8.618 2.483-3.047 7.411-3.95 10.782-1.998 2.199 1.273 3.234 3.357 3.708 5.806.245 1.27.213 2.554.134 3.84-.035.569-.216.802-.825.785-1.676-.048-3.355-.017-5.033-.017v-.023zm-2.585-3.912h2.801c.275 0 .5.007.513-.414.048-1.655-1.238-3.145-2.841-3.245-1.81-.113-3.388 1.288-3.629 3.193-.05.392.103.472.426.469.91-.008 1.82-.003 2.73-.003zM900.786 123.834c1.441.038 2.926.258 4.359.814.43.166.618.347.47.857a39.812 39.812 0 0 0-.696 2.799c-.092.43-.23.505-.623.323a8.773 8.773 0 0 0-2.98-.787c-.555-.045-1.103-.014-1.626.203-.475.198-.807.528-.87 1.08-.064.558.193.95.622 1.244.666.456 1.42.712 2.166.98.907.327 1.796.69 2.6 1.246 3.072 2.126 3.088 6.763.027 8.915-1.138.8-2.422 1.176-3.772 1.325-2.348.261-4.636.023-6.848-.886-.5-.206-.631-.461-.474-.998.27-.92.487-1.86.693-2.8.097-.44.212-.551.657-.328 1.26.632 2.6 1.006 4.006 1.082.357.02.72.01 1.075-.038.923-.123 1.438-.533 1.55-1.192.127-.736-.2-1.294-1.065-1.724a13.649 13.649 0 0 0-1.468-.6c-.907-.326-1.79-.7-2.614-1.217-3.935-2.472-2.804-7.116-.117-8.92 1.483-.996 3.123-1.34 4.928-1.378M964.742 129.27c0-4.175.01-8.35-.013-12.524-.003-.587.157-.759.722-.743 1.412.04 2.827.03 4.24.003.48-.009.661.11.66.65-.015 8.399-.015 16.798 0 25.196 0 .516-.141.681-.645.67a86.49 86.49 0 0 0-4.312.003c-.57.017-.664-.209-.662-.731.018-4.175.01-8.35.01-12.524"/>
            <path d="M852.987 123.215c-.024-.156-.103-.32.062-.458.198.156.216.362.182.587l-.244-.13M867.907 123.314c-.002-.128-.046-.334.12-.322.147.012.12.202.05.33l-.17-.008"/>
        </g>
        <g fill="#626C73">
            <path d="M215.967 114.6c1.617 0 2.964 1.348 2.964 2.966 0 1.62-1.347 2.967-2.964 2.967s-2.964-1.347-2.964-2.967c0-1.618 1.347-2.967 2.964-2.967M210.86 112.874a.41.41 0 0 1 .385.41l.002 28.243a.411.411 0 0 1-.411.412h-4.425a.411.411 0 0 1-.411-.412V113.01c0-.248.221-.438.464-.408l4.396.272M213.74 120.788l4.486.277a.41.41 0 0 1 .385.41h.001v20.045a.41.41 0 0 1-.41.412h-4.515a.41.41 0 0 1-.41-.412v-20.324a.41.41 0 0 1 .463-.408M220.854 119.233c0-2.021.937-4.018 2.464-5.335a6.396 6.396 0 0 1 5.82-1.334l.54.143a.41.41 0 0 1 .305.431l-.16 4.383a.409.409 0 0 1-.41.395l-2.067.002c-.879 0-1.245.751-1.245 1.54v5.402h2.966c.227 0 .41.184.41.411v4.513a.41.41 0 0 1-.41.411H226.1v15.818a.41.41 0 0 1-.41.41l-4.403.254a.411.411 0 0 1-.432-.409l-.002-27.035M237.609 125.792c-.705 0-1.302.597-1.302 1.303v1.667h2.604v-1.667c0-.706-.597-1.303-1.302-1.303zm-6.548 1.387c0-.845.174-1.748.526-2.609 1.035-2.53 3.373-4.088 6.1-4.088 2.538 0 4.772 1.435 5.852 3.733.382.814.573 1.643.573 2.344v4.853c0 .813-.31 1.466-.812 1.927-.527.483-1.261.743-2.064.743h-4.93v1.226c0 .825.488 1.58 1.375 1.58h4.204c.234 0 .421.198.41.432l.122 3.813a.409.409 0 0 1-.35.417l-4.372.642c-.23.03-.458.051-.69.051-1.462 0-2.841-.679-3.872-1.691a6.988 6.988 0 0 1-2.072-4.924v-8.45zM250.426 121.304c.771-.18 1.564-.27 2.355-.27 1.764 0 3.37.658 4.547 1.986 1.077 1.214 1.525 2.838 1.525 4.437v14.07a.411.411 0 0 1-.411.412h-2.821a.411.411 0 0 1-.41-.412v-14.13c0-1.537-1.052-2.387-2.533-2.387h-2.252v16.515a.411.411 0 0 1-.41.41l-2.821-.001a.41.41 0 0 1-.41-.41l-.001-28.353c0-.227.184-.41.41-.41h2.821c.227 0 .411.183.411.41v8.133M294.074 141.525a.41.41 0 0 1-.41.41l-2.822-.001a.41.41 0 0 1-.409-.41l-.002-28.352c0-.228.185-.412.411-.412h2.821a.41.41 0 0 1 .41.412v16.543l4.93-8.185a.41.41 0 0 1 .351-.2h3.29c.332 0 .53.347.34.642l-5.324 9.013 5.779 10.334a.414.414 0 0 1-.357.612h-3.177c-.166 0-.31-.098-.374-.24l-5.457-9.508v9.342M328 121.606a.41.41 0 0 1 .269.416l-.101 2.328a.41.41 0 0 1-.409.392h-2.688a4.22 4.22 0 0 0-.65.036 2.522 2.522 0 0 0-1.562.903 2.825 2.825 0 0 0-.621 1.793v14.053a.411.411 0 0 1-.41.412h-2.822a.41.41 0 0 1-.41-.412V127.35c0-1.49.514-2.902 1.396-4.012 2.01-2.53 5.198-2.754 8.008-1.73M309.851 124.772c-1.302 0-2.4 1.099-2.4 2.402v2.626h4.8v-2.626c0-1.297-1.104-2.402-2.4-2.402zm3.671 13.765a.41.41 0 0 1 .408.383l.152 2.24a.41.41 0 0 1-.35.433l-3.736.548a5.581 5.581 0 0 1-.789.058c-1.407 0-2.713-.593-3.678-1.61-1.11-1.168-1.72-2.794-1.72-4.401v-9.265c0-3.1 2.769-5.89 5.87-5.89 3.282 0 6.214 2.537 6.214 5.915v4.588c0 1.144-.812 1.94-1.951 1.94l-6.491-.005v2.137c0 .875.23 1.652.693 2.183.408.467 1.012.751 1.82.751l3.558-.005zM281.885 121.033c3.108 0 6.03 2.59 6.032 5.777v.68a.409.409 0 0 1-.399.41l-2.854.074a.41.41 0 0 1-.419-.399l-.021-.697c-.035-1.194-1.193-2.106-2.339-2.106-1.29 0-2.392 1.101-2.392 2.394v8.932c0 1.367 1.057 2.438 2.425 2.438.876 0 2.128-.696 2.247-1.651l.08-.65a.411.411 0 0 1 .457-.357l2.86.153a.41.41 0 0 1 .39.43c-.014.257-.07.525-.104.78-.38 2.847-3.151 5.012-5.963 5.012-3.244 0-6.034-2.652-6.034-5.93v-9.25c0-3.33 2.707-6.04 6.034-6.04M269.495 131.588h-2.126c-.833 0-1.494.272-1.946.74-.47.488-.726 1.199-.726 2.05 0 .47-.015.944.001 1.414.05 1.362.9 2.687 2.383 2.687h.097c1.33-.051 2.32-1.11 2.32-2.433l-.003-4.458zm-4.223-10.385c2.311-.436 4.7.113 6.295 1.955.984 1.136 1.549 2.636 1.552 4.245l.017 8.535c.006 3.437-2.395 6.099-5.835 6.205-3.244.1-6.246-2.574-6.246-5.876v-1.964c0-1.78.631-3.24 1.698-4.265 1.096-1.053 2.642-1.64 4.427-1.64.773 0 1.546.07 2.309.192l-.004-1.841c0-.594-.167-1.214-.61-1.636-.458-.439-1.103-.562-1.715-.524l-3.842.25a.41.41 0 0 1-.435-.384l-.12-2.196a.41.41 0 0 1 .268-.408c-.032-.094 2.07-.617 2.24-.648z"/>
        </g>
        <g fill="#767E85">
            <path d="M215.967 114.997a2.582 2.582 0 0 1 2.568 2.57c0 1.41-1.16 2.57-2.568 2.57a2.582 2.582 0 0 1-2.568-2.57c0-1.41 1.16-2.57 2.568-2.57M210.836 113.283v28.244h-4.425V113.01l4.425.273M213.687 121.196l4.515.279v20.045h-4.515v-20.324M221.265 119.233c0-1.9.883-3.785 2.32-5.025 1.522-1.312 3.528-1.752 5.449-1.247l.54.143a4766.92 4766.92 0 0 0-.16 4.403h-2.068c-1.133 0-1.656.917-1.656 1.95v5.814h3.377v4.513h-3.377v16.229l-4.425.255v-27.035M237.609 125.38c-.935 0-1.713.78-1.713 1.715v2.078h3.426v-2.078c0-.936-.778-1.714-1.713-1.714zm-6.138 1.799c0-1.537.613-3.272 1.852-4.527 1.032-1.044 2.485-1.759 4.364-1.759 1.743 0 3.108.661 4.095 1.583 1.282 1.198 1.92 2.857 1.92 4.083v4.853c0 1.432-1.109 2.258-2.466 2.258h-5.34v1.638c0 1.05.656 1.99 1.785 1.99h4.204c.04 1.283.081 2.565.123 3.848l-4.373.64a4.362 4.362 0 0 1-.63.046c-1.323 0-2.594-.6-3.585-1.573a6.57 6.57 0 0 1-1.95-4.631v-8.45zM250.015 121.836a9.897 9.897 0 0 1 2.766-.391c1.68 0 3.117.58 4.24 1.846 1.015 1.144 1.42 2.662 1.42 4.166v14.07h-2.82v-14.13c0-.787-.255-1.54-.795-2.058-.47-.452-1.176-.74-2.148-.74h-2.663v16.926h-2.82V113.17h2.82v8.665M299.354 121.742h3.29l-5.458 9.237 5.896 10.541h-3.177l-5.661-9.863c-.417-.726-.39-.78.041-1.497l5.07-8.418zm-5.69 19.783h-2.822v-28.353h2.821v28.353zM323.622 121.537c1.48-.309 2.878-.04 4.238.455l-.1 2.34h-.67l-2.019.001c-.239 0-.477.003-.714.04-1.487.239-2.53 1.546-2.53 3.1v14.054h-2.821V127.35c0-2.771 1.894-5.245 4.616-5.812M309.851 124.36c-1.536 0-2.811 1.277-2.811 2.814v3.038h5.622v-3.038c0-1.53-1.283-2.814-2.81-2.814zm.112 14.594l3.56-.007.15 2.24-3.737.547a5.077 5.077 0 0 1-.729.054c-1.377 0-2.529-.583-3.381-1.481-1.037-1.092-1.607-2.62-1.607-4.12v-9.264c0-2.877 2.583-5.478 5.46-5.478 3.064 0 5.804 2.314 5.804 5.503v4.588c0 .942-.61 1.528-1.541 1.528l-6.902-.003v2.547c0 1.855.96 3.346 2.923 3.346zM281.885 121.445c2.89 0 5.62 2.399 5.623 5.365v.68l-2.855.074-.02-.697c-.043-1.419-1.377-2.507-2.748-2.507-1.522 0-2.802 1.28-2.802 2.806v8.932c0 1.607 1.228 2.849 2.835 2.849 1.07 0 2.511-.862 2.655-2.013l.081-.649 2.888.155-.1.75c-.353 2.643-2.956 4.653-5.557 4.653v-.003c-3.041 0-5.623-2.439-5.623-5.518v-9.249a5.6 5.6 0 0 1 5.623-5.628M269.903 131.177h-2.534c-1.927 0-3.082 1.31-3.082 3.2v1.28c0 1.69 1.057 3.3 2.906 3.23 1.545-.058 2.716-1.28 2.716-2.84l-.006-4.87zm-6.731-8.94c1.438-.53 2.884-.912 4.436-.728 3.054.363 5.096 2.925 5.102 5.894l.017 8.86c0 3.11-2.707 5.548-5.748 5.472-2.899-.075-5.513-2.489-5.513-5.468v-1.964c0-3.38 2.41-5.494 5.714-5.494.913 0 1.823.098 2.719.27l-.005-2.33c0-1.616-1.036-2.679-2.76-2.569l-3.842.249-.12-2.193z"/>
        </g>
        <g fill="#8D959A">
            <path d="M207.111 113.754l3.024.187v26.885h-3.024v-27.072M214.433 121.938l3.023.186v18.702h-3.023v-18.888M215.967 115.689a1.877 1.877 0 0 1 0 3.755 1.877 1.877 0 0 1 0-3.755M221.966 119.233c0-3.32 3.024-6.614 6.89-5.595l-.116 3.167h-1.394c-1.188 0-2.356.807-2.356 2.653v6.515h3.377v3.11h-3.377v16.269l-3.024.175v-26.294M237.609 124.68a2.422 2.422 0 0 1 2.413 2.415v2.78h-4.827v-2.78a2.422 2.422 0 0 1 2.414-2.416zm-5.438 2.499c0-2.5 1.814-5.584 5.516-5.584 3.557 0 5.313 3.084 5.313 4.964v4.853c0 .917-.593 1.557-1.764 1.557h-6.04v2.34c0 1.885 1.409 2.691 2.485 2.691h3.527l.082 2.543-3.756.55c-2.692.393-5.363-2.302-5.363-5.465v-8.45zM249.315 122.845c.983-.475 2.347-.7 3.466-.7 1.545 0 2.704.467 3.718 1.61.771.868 1.242 2.097 1.242 3.702v13.37h-1.42v-13.43c0-1.804-1.126-3.5-3.643-3.5h-3.363v16.93h-1.42v-26.954h1.42v8.972M292.963 140.826h-1.42v-26.953h1.42v26.953zm6.792-18.39h1.664l-5.041 8.534 5.511 9.856h-1.575l-5.367-9.351c-.307-.535-.284-.585.036-1.115l4.772-7.924zM327.14 122.478c-2.036-.724-4.526-.462-6.044 1.26-.772.87-1.388 2.006-1.388 3.61v13.478h1.418v-13.352c0-1.773 1.266-3.84 3.722-3.84h2.242l.05-1.156M309.851 123.659c1.923 0 3.512 1.59 3.512 3.515v3.74h-7.024v-3.74a3.524 3.524 0 0 1 3.512-3.515zm3.017 15.989h-2.952c-1.853 0-3.577-1.314-3.577-4.04v-3.245h7.603c.547 0 .84-.23.84-.827v-4.588c0-1.933-1.53-4.802-5.103-4.802-2.496 0-4.76 2.286-4.76 4.777v9.265c0 2.589 1.94 5.288 4.916 4.852l3.096-.453-.063-.94zM281.885 122.146c2.455 0 4.923 2.023 4.925 4.664l-1.48.038c-.054-1.81-1.708-3.19-3.445-3.19-1.917 0-3.503 1.588-3.503 3.508v8.932c0 1.929 1.447 3.55 3.536 3.55 1.6 0 3.184-1.308 3.35-2.629l1.482.08c-.277 2.072-2.378 4.043-4.865 4.043-2.695 0-4.922-2.122-4.922-4.82v-9.249c0-2.829 2.216-4.927 4.922-4.927M270.6 130.475l.01 5.564c.004 1.928-1.447 3.55-3.536 3.55-1.6 0-3.488-1.185-3.488-3.932v-1.28c0-2.443 1.546-3.902 3.783-3.902h3.23zm-6.702-7.76l.053.97 3.14-.203c2.231-.144 3.498 1.403 3.501 3.267l.007 3.197c-1.085-.258-2.168-.435-3.42-.435-2.908 0-5.012 1.66-5.012 4.792v1.964c0 2.626 2.333 4.769 4.94 4.769 2.695 0 4.928-2.075 4.922-4.774l-.017-8.859c-.003-1.6-.607-2.976-1.638-3.92-1.81-1.657-4.318-1.562-6.476-.768z"/>
        </g>
        <g fill="#767E85">
            <path d="M722.251 23.757c.109-4.6 2.114-8.2 5.812-10.868 2.308-1.666 4.903-2.57 7.748-2.817 4.296-.373 8.158.699 11.526 3.4 2.599 2.084 4.337 4.762 4.869 8.062.942 5.855-1.418 10.305-6.185 13.57-2.165 1.483-4.607 2.244-7.245 2.463-3.123.26-6.091-.233-8.846-1.69-4.146-2.19-6.824-5.522-7.57-10.253-.028-.178-.098-.353-.104-.531-.015-.445-.005-.89-.005-1.336zm17.718-.077c0-2.022-.013-4.044.007-6.065.006-.623-.237-1.098-.694-1.475-.512-.42-1.132-.448-1.767-.483-1.994-.108-2.784.985-2.76 2.723.053 3.74.047 7.48 0 11.22-.016 1.26.633 1.835 1.628 2.043.668.139 1.369.146 2.042-.024 1.09-.274 1.541-.873 1.543-1.995.003-1.981 0-3.963 0-5.944z"/>
            <path d="M774.576 10.088c-.464.735-.866 1.383-1.278 2.022-2.234 3.46-4.458 6.927-6.72 10.367-.358.544-.343.92.002 1.453 2.8 4.321 5.57 8.66 8.344 12.998.093.144.307.282.21.47-.115.22-.367.109-.554.11-2.853.006-5.705-.004-8.556.013-.391.003-.626-.118-.84-.444-1.138-1.74-2.3-3.467-3.454-5.198-.077-.116-.16-.227-.3-.422-.637.958-1.246 1.868-1.851 2.782-.646.976-1.293 1.952-1.926 2.936-.145.225-.3.343-.581.342-2.994-.01-5.988-.007-8.98-.01-.054 0-.107-.033-.22-.069.764-1.238 1.51-2.452 2.26-3.664 2.123-3.434 4.24-6.871 6.382-10.295.203-.326.133-.53-.042-.803-2.576-4.009-5.148-8.02-7.714-12.036-.092-.144-.246-.271-.233-.48.159-.13.347-.068.518-.069 2.811-.004 5.623.006 8.434-.012.438-.003.687.134.913.518.923 1.566 1.883 3.11 2.835 4.657.114.184.197.404.467.535.403-.723.814-1.438 1.204-2.163.563-1.05 1.12-2.104 1.661-3.166.138-.268.299-.38.607-.378 3.095.01 6.189.006 9.412.006M704.034 23.852c0-4.332.011-8.663-.013-12.995-.004-.553.162-.66.68-.659 5.626.019 11.25.017 16.876.002.496-.001.66.082.706.645.165 2.061.009 4.123.099 6.182.02.474-.145.577-.586.574-2.994-.016-5.99.003-8.984-.018-.498-.004-.677.128-.65.643.04.787.043 1.58 0 2.366-.03.525.11.69.662.683 2.468-.032 4.937.006 7.405-.028.577-.008.699.174.691.713-.03 2.084-.037 4.17.004 6.254.012.609-.183.726-.75.72-2.488-.032-4.977-.003-7.466-.024-.498-.004-.666.143-.661.653.023 2.449-.003 4.898.02 7.347.006.483-.135.617-.614.613a277.076 277.076 0 0 0-6.677.001c-.572.008-.758-.142-.755-.739.025-4.31.013-8.622.013-12.933M781.092 10.088c1.254 0 2.51.013 3.763-.007.387-.007.49.111.539.506.234 1.892.532 3.775.787 5.664.232 1.718.43 3.44.654 5.16.248 1.91.509 3.82.76 5.731.195 1.479.38 2.959.576 4.437.251 1.891.512 3.78.765 5.671.148 1.099.286 2.198.435 3.296.041.295-.069.397-.361.394a84.72 84.72 0 0 0-2.914.003c-.393.01-.395-.278-.463-.51-.601-2.03-1.189-4.062-1.787-6.091-1.25-4.251-2.507-8.5-3.76-12.75-1.064-3.614-2.12-7.229-3.196-10.838-.151-.508-.11-.704.5-.68 1.232.049 2.468.014 3.702.014"/>
            <path d="M774.624 13.933l9.776 27.002c-1.526 0-2.975-.005-4.423.004-.298.001-.349-.236-.46-.414-2.496-3.988-4.989-7.977-7.483-11.965-1.07-1.712-2.141-3.423-3.218-5.13-.165-.26-.226-.482-.034-.77 1.883-2.823 3.755-5.653 5.63-8.48.042-.063.1-.116.212-.247M777.317 40.937h-.81c-23.89 0-47.78 0-71.67-.008-.26 0-.672.175-.758-.148-.12-.456-.092-.96.01-1.438.011-.05.17-.086.264-.094.18-.015.364-.006.546-.006 23.445 0 46.89.004 70.335-.018.761 0 1.273.155 1.557.89.098.254.295.468.526.822M708.827 51.615c-1.437 0-2.873-.01-4.31.007-.364.004-.491-.103-.49-.48.014-2.712.019-5.424-.002-8.136-.004-.487.23-.497.594-.496 2.69.008 5.38.005 8.072.005 1.058 0 1.89.406 2.347 1.393.456.982.331 1.944-.348 2.77-.273.331-.192.443.06.684.712.68.917 1.811.535 2.744-.391.958-1.205 1.504-2.27 1.508-1.396.005-2.793 0-4.188 0zm.85-3.513c-1.011 0-2.023.025-3.032-.01-.584-.02-.54.337-.53.71.01.369-.113.778.53.77 2.002-.028 4.004-.018 6.005-.006.502.003.752-.186.757-.706.005-.529-.204-.777-.759-.765-.99.023-1.98.007-2.971.007zm-.123-2.05c.97 0 1.94-.015 2.91.007.521.011.805-.162.797-.723-.007-.538-.264-.754-.793-.75-1.94.01-3.88.02-5.82-.006-.575-.008-.548.325-.533.706.014.369-.113.796.53.775.969-.032 1.94-.009 2.91-.009zM733.91 51.615c-1.234 0-2.468-.021-3.701.01-.467.013-.574-.142-.57-.586.01-1.478-.007-1.478 1.486-1.478h6.008c.648-.002.882-.197.882-.724 0-.535-.229-.733-.87-.734-1.78-.003-3.563-.06-5.34.019-1.286.056-2.838-1.379-2.56-3.145.192-1.214.793-2.045 1.99-2.397.17-.05.357-.063.536-.063 2.447-.004 4.895.01 7.343-.013.48-.005.616.13.61.61-.018 1.475.002 1.476-1.497 1.476h-6.007c-.746 0-.867.12-.888.741-.02.633.342.716.858.711 1.78-.016 3.56-.02 5.34-.001 1.428.016 2.333.954 2.536 2.575.166 1.317-.682 2.639-1.915 2.937-.635.153-1.29.046-1.934.058-.769.015-1.538.004-2.307.004M771.724 51.615c-1.274 0-2.548-.01-3.822.006-.352.004-.492-.08-.502-.469-.038-1.591-.052-1.591 1.558-1.591 1.981 0 3.963-.008 5.945.006.509.004.794-.113.788-.707-.005-.59-.247-.773-.809-.766-1.759.022-3.519-.012-5.278.014-1.49.021-2.622-1.082-2.638-2.77-.016-1.643 1.138-2.822 2.677-2.823 2.387-.001 4.773.012 7.159-.01.46-.005.577.132.574.581-.011 1.504.007 1.504-1.464 1.504-2.003 0-4.005-.002-6.007 0-.729.002-1.044.495-.762 1.167.135.32.405.28.667.28 1.759 0 3.519-.004 5.278 0 1.316.003 2.303.732 2.616 1.92.357 1.356-.122 2.705-1.188 3.344-.354.212-.733.32-1.152.317-1.213-.009-2.426-.003-3.64-.003M783.7 51.615c-1.235 0-2.47-.013-3.703.008-.406.007-.564-.09-.565-.533-.005-1.53-.023-1.53 1.503-1.53 1.983 0 3.966.002 5.949 0 .685 0 .925-.202.91-.755-.017-.593-.38-.714-.9-.71-1.78.017-3.56.008-5.341.006a2.493 2.493 0 0 1-2.502-2.431c-.06-1.686.585-2.714 1.944-3.084a2.07 2.07 0 0 1 .534-.069c2.429-.004 4.857.01 7.284-.012.45-.004.586.113.583.574-.011 1.51.008 1.51-1.52 1.51-2.003 0-4.005-.002-6.009.002-.682.002-.934.375-.756 1.025.105.386.354.425.686.424 1.821-.008 3.642-.013 5.464 0 1.296.009 2.34.919 2.487 2.13.216 1.785-.437 3.015-1.809 3.377-.575.152-1.167.053-1.751.064-.83.015-1.66.004-2.489.004M760.717 42.515c1.436 0 2.872.013 4.308-.009.416-.006.554.109.555.542.005 1.542.02 1.542-1.49 1.542-1.86 0-3.72.028-5.58-.016-.664-.015-.574.358-.582.765-.007.408-.042.724.567.712 2.001-.04 4.004.002 6.006-.027.497-.007.603.156.598.618-.018 1.46 0 1.46-1.446 1.46-1.72 0-3.439.03-5.157-.015-.68-.018-.556.38-.566.773-.009.399-.056.727.56.716 2.122-.039 4.247.002 6.37-.027.517-.007.643.156.635.65-.024 1.416-.003 1.416-1.437 1.416-2.528 0-5.056-.013-7.584.012-.489.004-.608-.145-.604-.617.021-2.629.021-5.259 0-7.889-.003-.464.104-.63.6-.618 1.415.034 2.832.012 4.247.012M752.352 48.524c0-1.862.01-3.66-.008-5.46-.004-.407.09-.56.532-.56 1.542-.002 1.542-.02 1.542 1.543 0 2.326-.014 4.651.011 6.976.006.49-.172.535-.61.617-1.259.236-1.95-.467-2.666-1.314-1.35-1.6-2.762-3.148-4.15-4.72-.211.138-.126.315-.127.458-.007 1.638-.022 3.276.006 4.914.008.512-.166.653-.662.648-1.505-.016-1.505.003-1.505-1.525 0-2.346.009-4.691-.008-7.037-.003-.41.102-.533.534-.566 1.046-.081 1.835.141 2.547 1.046 1.245 1.583 2.662 3.03 4.01 4.53.144.16.263.354.554.45M722.196 51.615c-1.012 0-2.023.004-3.035-.001-1.3-.006-2.466-1.09-2.488-2.403-.037-2.084-.005-4.168-.017-6.252-.002-.346.117-.441.455-.452 1.604-.054 1.604-.064 1.604 1.543v4.431c0 1.036.045 1.08 1.107 1.08h4.976c.749-.001.955-.205.958-.977.005-1.821.015-3.642-.008-5.463-.007-.464.104-.626.6-.62 1.48.022 1.48 0 1.48 1.487 0 1.559.027 3.117-.006 4.674-.038 1.733-1 3.134-2.957 2.955-.16-.014-.323-.002-.485-.002h-2.184M743.37 47.047c0 1.334-.015 2.667.007 4 .008.422-.068.607-.554.605-1.64-.004-1.64.017-1.64-1.63 0-2.325.012-4.65-.01-6.973-.005-.476.079-.672.617-.664 1.579.027 1.58.002 1.58 1.57v3.092z"/>
        </g>
        <path fill="#FFFFFE" d="M407.12 40.713v-11.19c0-1.652-.317-2.857-.957-3.618-.64-.759-1.681-1.137-3.129-1.137-.67 0-1.385.186-2.146.56-.76.374-1.354.838-1.778 1.392v13.993h-4.551v-19.44h3.28l.84 1.811c1.237-1.425 3.068-2.14 5.487-2.14 2.32 0 4.151.692 5.495 2.074 1.343 1.385 2.015 3.313 2.015 5.79v11.905h-4.555M440.798 41.095c2.978 0 5.326-.858 7.047-2.575 1.724-1.717 2.58-4.166 2.58-7.346 0-6.82-3.11-10.23-9.336-10.23-1.665 0-3.07.545-4.214 1.635v-1.307h-4.553v27.03h4.553v-8.06c1.178.568 2.487.853 3.923.853m-1.017-16.273c2.098 0 3.601.468 4.511 1.402.908.935 1.36 2.549 1.36 4.84 0 2.148-.455 3.72-1.371 4.715-.914.994-2.42 1.492-4.516 1.492-1.103 0-2.067-.33-2.89-.994V26.088c.848-.843 1.817-1.266 2.906-1.266M484.303 25.531a4.914 4.914 0 0 0-2.664-.764c-1.052 0-1.987.477-2.801 1.428-.819.953-1.227 2.115-1.227 3.489v11.029h-4.554v-19.44h4.554v1.856c1.27-1.456 2.957-2.184 5.062-2.184 1.547 0 2.733.236 3.553.706l-1.923 3.88"/>
        <path fill="#1B1A19" d="M501.614 14.01c.357 0 .711-.011.711-.411 0-.33-.276-.406-.563-.406h-.533v.817h.385zm-.385 1.295h-.294v-2.36h.91c.534 0 .773.23.773.654 0 .417-.277.602-.596.657l.705 1.05h-.341l-.67-1.05h-.487v1.05zm-1.28-1.18c0 .977.738 1.751 1.732 1.751.99 0 1.729-.774 1.729-1.75 0-.979-.74-1.751-1.73-1.751-.993 0-1.731.772-1.731 1.75zm3.78 0a2.018 2.018 0 0 1-2.048 2.044c-1.161 0-2.055-.896-2.055-2.044 0-1.147.894-2.042 2.055-2.042 1.157 0 2.048.895 2.048 2.042z"/>
        <path fill="#8D959A" d="M384.025 49.975h38.078V12.076h-38.078z"/>
        <path fill="#626C73" d="M422.103 49.975h38.107V12.076h-38.107z"/>
        <path fill="#767E85" d="M460.21 49.975h38.105V12.076H460.21z"/>
        <path fill="#FFFFFE" d="M407.12 40.713v-11.19c0-1.652-.317-2.857-.957-3.618-.64-.759-1.681-1.137-3.129-1.137-.67 0-1.385.186-2.146.56-.76.374-1.354.838-1.778 1.392v13.993h-4.551v-19.44h3.28l.84 1.811c1.237-1.425 3.068-2.14 5.487-2.14 2.32 0 4.151.692 5.495 2.074 1.343 1.385 2.015 3.313 2.015 5.79v11.905h-4.555M440.798 41.095c2.978 0 5.326-.858 7.047-2.575 1.724-1.717 2.58-4.166 2.58-7.346 0-6.82-3.11-10.23-9.336-10.23-1.665 0-3.07.545-4.214 1.635v-1.307h-4.553v27.03h4.553v-8.06c1.178.568 2.487.853 3.923.853m-1.017-16.273c2.098 0 3.601.468 4.511 1.402.908.935 1.36 2.549 1.36 4.84 0 2.148-.455 3.72-1.371 4.715-.914.994-2.42 1.492-4.516 1.492-1.103 0-2.067-.33-2.89-.994V26.088c.848-.843 1.817-1.266 2.906-1.266M484.303 25.531a4.914 4.914 0 0 0-2.664-.764c-1.052 0-1.987.477-2.801 1.428-.819.953-1.227 2.115-1.227 3.489v11.029h-4.554v-19.44h4.554v1.856c1.27-1.456 2.957-2.184 5.062-2.184 1.547 0 2.733.236 3.553.706l-1.923 3.88"/>
        <path fill="#9F9F9F" d="M501.614 14.01c.357 0 .711-.011.711-.411 0-.33-.276-.406-.563-.406h-.533v.817h.385zm-.385 1.295h-.294v-2.36h.91c.534 0 .773.23.773.654 0 .417-.277.602-.596.657l.705 1.05h-.341l-.67-1.05h-.487v1.05zm-1.28-1.18c0 .977.738 1.751 1.732 1.751.99 0 1.729-.774 1.729-1.75 0-.979-.74-1.751-1.73-1.751-.993 0-1.731.772-1.731 1.75zm3.78 0a2.018 2.018 0 0 1-2.048 2.044c-1.161 0-2.055-.896-2.055-2.044 0-1.147.894-2.042 2.055-2.042 1.157 0 2.048.895 2.048 2.042z"/>
        <g>
            <g transform="translate(0 21)">
                <mask id="b" fill="#fff">
                    <use xlink:href="#a"/>
                </mask>
                <path fill="#767E85" d="M9.392.024A3.024 3.024 0 0 1 10.988.7c.534.51.656 1.285.468 1.99-.166.626-.352.952-1.003 1.386-.657.436-1.452.4-1.452.4v2.717l1.343 1.07L9.001 9.33v3.702s1.346-.76 2.18-2.46c0 0 .035-.092.114-.268.074.456.032 1.378-.492 2.561-.395.892-1.112 1.75-2.012 2.238-1.595.87-2.791.954-4.074.692-1.501-.304-2.865-1.134-3.795-2.582-.654-1.018-.947-2.204-.92-3.48.052-2.506 1.946-4.667 4.133-5.473.266-.098.372-.162.75-.196-.174.117-.375.267-.622.427-.705.455-1.308 1.362-1.565 2.06l4.244-1.863v5.838l-3.423 1.688c.39.531 1.575 1.337 2.589 1.45 1.724.188 2.736-.553 2.736-.553V9.33L7.506 8.263l1.337-1.067v-2.72c-.729-.083-1.614-.32-2.132-.446-.76-.185-3.299-.886-3.698-.944-.398-.058-.89-.04-1.188.222-.297.264-.482.728-.355 1.146.072.237.237.375.362.51 0 0-.146-.012-.412-.169C.942 4.512.578 3.96.534 3.277c-.056-.895.318-1.7 1.068-2.241C2.253.624 2.99.359 3.847.479c1.25.175 2.93.87 4.427 1.224.58.138 1.029.184 1.437-.05.19-.135.523-.482.25-.943C9.643.169 9.032.18 8.515.086c.445-.093.543-.093.877-.062zM4.346 11.632V5.994l-1.723.756c-.001 0-.44.969-.363 2.374.06 1.097.684 2.41 1.163 2.96l.923-.452z" mask="url(#b)"/>
            </g>
            <path fill="#767E85" d="M25.854 26.72s-1.3.775-2.175 1.289c-.875.51-2.048 1.073-2.048 1.073v5.38l-.782.618.104.12.763-.606 2.392 2.128 4.156-3.24-.098-.118-2.297 1.774-1.888-1.74v-.649l3.792-2.745-1.92-3.284zm.055 4.443l-1.928 1.39v-4.624l1.928 3.234zM14.958 38.744c.546.132 1.509.206 2.67-.366 1.285-.633 1.931-1.977 1.922-3.354l.055-1.952v-4.264l.822-.618-.096-.12-.809.6-1.866-2.041-2.394 2.022v-6.874l-2.991 2.275c.133.083.557.16.57.747v9.63l-1.267.924.086.13.612-.45 1.703 1.559 2.682-2.1-.097-.12-.63.492-.668-.651.007-5.365.781-.655 1.165 1.424s-.002 3.474 0 4.627c-.008 1.23-.012 2.763-.669 3.504-.656.744-.92.803-1.588.996M33.569 38.259c-1.071-.12-1.521-.76-1.51-1.264.009-.323.307-.956.958-1.042.651-.09 1.317.212 1.878.86l2.475-2.69-.12-.104-.664.732c-.675-.757-1.633-1.233-2.588-1.371v-8.197l6.427 11.52s.062.132.326.132c.228 0 .173-.182.173-.182V25.06c.521-.021 1.319-.304 1.706-.694 1.237-1.251.732-2.616.596-2.749-.076.597-.542 1.196-1.32 1.2-1.02.002-1.643-.739-1.643-.739l-2.473 2.773.118.105.709-.796c.865.784 1.497.857 2.15.9v6.727l-4.768-8.522c-.431-.704-1.089-1.322-2.12-1.331-1.183-.006-2.031 1.02-2.132 1.906-.115 1 .012 1.23.012 1.23s.174-1.113.874-1.104c.629.01.956.578 1.208 1.005v2.469c-.648.043-2.336.117-2.44 1.844-.007.643.399 1.316.754 1.544.457.295.813.289.813.289s-.547-.286-.383-.852c.146-.507 1.218-.59 1.257-.378v3.483c-.516-.006-2.167.05-2.912 1.442-.45.843-.423 1.784.057 2.447.391.542 1.196 1.233 2.582 1M47.143 26.72s-1.3.775-2.175 1.289c-.874.51-2.047 1.073-2.047 1.073v5.38l-.782.618.104.12.763-.606 2.391 2.128 4.157-3.24-.099-.118-2.296 1.774-1.889-1.74v-.649l3.793-2.745-1.92-3.284zm.056 4.443l-1.929 1.39v-4.624l1.929 3.234zM52.954 36.762l-2.038-1.667-.896.64-.09-.126.91-.655v-4.658c.044-1.918-1.786-1.442-1.686-3.477.043-.894.923-1.571 1.367-1.795.476-.237.99-.237.99-.237s-.834.513-.631 1.251c.312 1.138 2.288 1.239 2.325 2.755v5.284l1.46 1.15.384-.295v-5.721l-.787-.769 2.026-1.765 1.85 1.615-.705.753v5.07l1.733 1.408.308-.195v-6.102l-.788-.725 2.03-1.826 1.898 1.543.758-.661.102.117-1.706 1.475v4.974l-4.366 2.65-2.233-1.74-2.215 1.729M142.268 26.72s-1.3.775-2.175 1.289a34.541 34.541 0 0 1-2.047 1.073v5.38l-.783.618.105.12.763-.606 2.391 2.128 4.157-3.24-.098-.118-2.298 1.774-1.888-1.74v-.649l3.793-2.745-1.92-3.284zm.056 4.443l-1.93 1.39v-4.624l1.93 3.234zM122.754 28.971l.102.117.782-.664 1.163 1.294v4.445l-.565.508 1.811 2.013 1.858-1.801-.764-.778v-5.377l.462-.363 1.285 1.476v4.433l-.483.474 1.705 1.888 1.824-1.796-.67-.692-.018-5.398.493-.394 1.34 1.451v4.409l-.441.433 1.882 2.02 2.528-2.296-.107-.114-.614.556-.941-1.027v-5.032l.909-.68-.095-.123-.91.68-1.72-1.897-2.459 1.912-1.722-1.844-2.375 1.829-1.738-1.82-2.522 2.158"/>
            <path fill="#767E85" d="M117.608 28.832l.102.118.661-.563 1.035 1.205v5.082l-.73.627.102.117.766-.643 1.668 1.894 2.412-2.118-.102-.117-.71.615-.997-1.131V28.95l.84-.717-.1-.117-.8.677L120 26.779l-2.392 2.053"/>
            <g transform="translate(106.452 21)">
                <mask id="d" fill="#fff">
                    <use xlink:href="#c"/>
                </mask>
                <path fill="#767E85" d="M11.85 3.624l1.816-1.635 1.476 1.61-1.823 1.63-1.468-1.605M9.41.024A3.024 3.024 0 0 1 11.005.7c.535.51.656 1.285.469 1.99-.167.626-.353.952-1.004 1.386-.657.436-1.452.4-1.452.4v2.717l1.344 1.07L9.018 9.33v3.702s1.346-.76 2.182-2.46c0 0 .034-.092.112-.268.074.456.032 1.378-.492 2.561-.394.892-1.112 1.75-2.012 2.238-1.595.87-2.79.954-4.073.692-1.501-.304-2.865-1.134-3.795-2.582-.655-1.018-.948-2.204-.92-3.48.052-2.506 1.946-4.667 4.133-5.473.266-.098.371-.162.75-.196-.175.117-.376.267-.623.427-.704.455-1.307 1.362-1.565 2.06L6.96 4.688v5.838l-3.422 1.688c.39.531 1.575 1.337 2.589 1.45 1.724.188 2.735-.553 2.735-.553V9.33L7.525 8.263l1.336-1.067v-2.72c-.728-.083-1.613-.32-2.13-.446-.762-.185-3.3-.886-3.7-.944-.398-.058-.89-.04-1.187.222-.298.264-.482.728-.355 1.146.071.237.236.375.362.51 0 0-.147-.012-.412-.169C.959 4.512.595 3.96.55 3.277c-.056-.895.318-1.7 1.068-2.241C2.271.624 3.007.359 3.865.479c1.25.175 2.93.87 4.427 1.224.58.138 1.029.184 1.436-.05.19-.135.524-.482.25-.943C9.66.169 9.05.18 8.533.086c.446-.093.543-.093.878-.062zM4.364 11.632V5.994L2.64 6.75s-.44.969-.363 2.374c.061 1.097.685 2.41 1.164 2.96l.923-.452zM40.441 16.416c-.275.08-1.472-.206-1.76-1.426-.28-1.19.56-1.996 1.829-3.262l-1.498-1.347v-2.57s1.1-.54 1.963-1.07c.862-.532 1.744-1.107 1.744-1.107s.643.8 1.37.735c1.138-.098 1.085-.98 1.052-1.19.194.342.714 1.356-1.285 3.625l1.628 1.294v3.34s-1.892.967-3.681 2.253c0 0-1-1.23-1.866-.643-.586.396-.318 1.067.504 1.368zm-1.407-2.573s.86-1.399 2.336-1.098c1.417.29 1.909 1.762 1.909 1.762v-3.39l-.989-.846c-1.085 1.073-3.017 2.625-3.256 3.572zm2.192-7.083V9.43l.904.775s1.963-1.547 2.676-2.98c0 0-.882 1.178-2.07.819-.995-.298-1.51-1.285-1.51-1.285z" mask="url(#d)"/>
            </g>
            <path fill="#767E85" d="M85.768 28.94l.733-.664.105.117-.714.652v5.31s-1.357.706-2.304 1.232c-.946.526-1.957 1.144-1.957 1.144l-2.49-2.063-.657.562-.107-.117.692-.593v-5.709h.01s1.173-.523 2.164-1.073c.886-.492 1.877-1.06 1.877-1.06l2.648 2.262zm-4.337 4.68l2.103 1.872V29.76l-2.103-1.915v5.773zM90.662 28.402l1.58-1.59s.219.188.422.287c.116.055.594.298 1.033.061.238-.129.272-.163.533-.406.053 1.236-.55 2.106-1.302 2.466-.308.147-1.207.43-2.148-.698v5.712l1 .87.836-.68.096.12-2.616 2.15-1.99-1.783-.717.664-.117-.123 1.09-.969.01-4.931-.837-1.091-.72.624-.103-.114 2.534-2.241 1.416 1.672M97.328 30.782l2.924-4.184s.385.448 1.057.624c.913.233 1.71-.634 1.71-.634-.153 1.12-.73 2.389-1.92 2.583-1.048.172-2.024-.63-2.024-.63l-.19.288 4.06 6.032.81-.7.106.116-2.786 2.395-3.747-5.89"/>
            <path fill="#767E85" d="M94.913 25.196c0-.904-.376-1.46-.867-1.42l3.188-2.205v12.476l.843.873.638-.544.1.117-2.57 2.207-1.74-1.608-.698.603-.11-.117 1.216-1.042v-9.34M68.255 24.99c0-.843-.348-1.313-.911-1.325-.81-.019-1.003 1.107-1.003 1.107s-.147-.867.59-1.654c.415-.44 1.188-1.058 2.398-.772 1.249.298 1.603 1.251 1.603 2.093v11.606s.472.055.796.126c.376.077.731.175.731.175V22.352h.156v1.888l2.56-2.03 1.877 1.642.875-.744.1.117-.915.775v10.79c-.045.705-.16 1.42-.836 1.833-1.507.88-3.325-.135-4.945-.366-1.202-.175-3.089-.4-3.562.686a.998.998 0 0 0 .401 1.266c1.094.72 5.967-1.208 7.638-.443 1.524.698 1.518 1.802 1.283 2.561C76.694 41.751 74.868 42 74.868 42s.893-.51.639-1.356c-.13-.427-.424-.547-1.38-.443-2.089.234-4.585 1.23-6.263.538-.864-.353-1.476-1.417-1.416-2.462.043-1.503 1.807-2.097 1.807-2.097V30.62c-.051-.222-.992-.163-1.198.246-.313.618.389.9.389.9s-.582.087-1.07-.467c-.237-.27-.733-1.217-.088-2.093.53-.723 1.165-.849 1.967-.935v-3.28zm4.36 11.4s.743.193 1.285-.244c.602-.489.538-1.174.538-1.174V30.65s-.349-.442-.903-.442c-.555 0-.92.458-.92.458v5.724zm1.823-11.348l-1.23-1.064-.593.461v4.006s.365.455.92.455c.554 0 .903-.436.903-.436v-3.422zm0 3.661s-.352.394-.906.394c-.555 0-.917-.397-.917-.397v1.71s.362-.397.917-.397c.554 0 .906.375.906.375v-1.685z"/>
        </g>
        <g>
            <g fill="#767E85">
                <path d="M264.52 26.601c-1.688 2.438-3.408 4.856-5.046 7.327-.534.806-.766.687-1.243-.021-1.656-2.458-3.367-4.88-5.288-7.65v3.225c0 2.88-.02 5.758.014 8.636.008.68-.164.922-.894.915-.727-.008-1.03-.146-1.023-.95.037-4.605.008-9.211.034-13.817.002-.416-.345-1.118.444-1.192.656-.061 1.388-.279 1.903.51 1.489 2.28 3.035 4.523 4.561 6.778.272.401.558.792.912 1.293 1.819-2.676 3.583-5.263 5.334-7.86.314-.465.623-.77 1.28-.786.895-.022 1.226.177 1.214 1.15-.056 4.605-.04 9.211-.009 13.817.006.78-.175 1.067-1.032 1.064-.86-.003-.923-.378-.919-1.049.023-3.775.011-7.551.011-11.327l-.253-.063M276.2 28.562c-2.465-.013-4.432 2.038-4.4 4.588.03 2.52 2.053 4.567 4.483 4.54 2.458-.028 4.292-1.96 4.294-4.522.001-2.581-1.91-4.592-4.377-4.606m6.3 4.507c.014 3.524-2.78 6.293-6.324 6.268-3.574-.024-6.228-2.669-6.219-6.197.01-3.488 2.716-6.191 6.238-6.231 3.482-.04 6.292 2.707 6.306 6.16M287.36 28.957c1.38-1.527 2.907-2.132 4.66-2.019 2.939.189 4.596 2.007 4.61 4.936.01 2.057-.028 4.114.018 6.17.016.73-.151 1.007-.96.993-.757-.012-.88-.299-.868-.945.036-1.85.027-3.702.01-5.553-.024-2.477-1.404-3.956-3.647-3.942-2.308.015-3.87 1.65-3.874 4.06-.002 1.768-.007 3.537.003 5.306.003.59.09 1.102-.851 1.078-.823-.021-1.064-.245-1.054-1.05.04-3.249.027-6.499.009-9.748-.005-.695.033-1.114.977-1.13 1.018-.015.942.515.919 1.152-.006.148.019.297.048.692M308.399 32.423c.523.006.733-.12.619-.717-.35-1.837-1.78-3.164-3.569-3.22-1.753-.053-3.463 1.356-3.832 3.124-.121.58.02.837.662.817.998-.03 1.998-.008 2.997-.008 1.041 0 2.082-.009 3.123.004m-2.177 1.485c-1.21 0-2.424.053-3.63-.016-1.14-.066-1.14.406-.805 1.245 1.067 2.672 4.335 3.421 6.909 1.577.342-.245.59-.845 1.223-.277.542.486.69.764.06 1.312-1.972 1.717-5.06 2.102-7.354.84-2.22-1.22-3.419-3.873-2.962-6.555.473-2.773 2.353-4.656 5.054-5.062 2.984-.449 5.67 1.645 6.157 4.804.05.324.041.66.111.979.208.954-.197 1.225-1.132 1.17-1.207-.071-2.42-.018-3.631-.017M319.152 36.937c1.162-2.954 2.21-5.613 3.255-8.275.618-1.57.615-1.571 2.543-1.444l-2.493 6.04c-.925 2.239-1.805 4.497-2.789 6.71-1.119 2.52-2.969 3.361-5.437 2.56-.37-.12-1.044-.082-.75-.823.21-.534.36-1.066 1.206-.73 1.172.465 2.201.207 2.958-.872.458-.653.577-1.231.192-2.03-1.708-3.546-3.33-7.132-4.99-10.72 1.872-.429 1.869-.427 2.567 1.151 1.195 2.703 2.395 5.404 3.738 8.433"/>
            </g>
            <path fill="#767E85" d="M194 55.93h48.93V7H194z"/>
            <path fill="#FFF" d="M211.454 34.939a.658.658 0 0 0 .599-.65v-9.251c0-3.433 4.298-5.096 6.588-1.084 2.326 4.083 3.664 6.468 3.664 6.468v-5.384c0-3.433 4.299-5.096 6.589-1.084 2.325 4.083 3.664 6.468 3.664 6.468v-8.745h5.144V37c0 3.938-4.51 4.552-6.342 1.409-1.092-1.843-3.91-6.613-3.91-6.613v5.204c.035 3.938-4.475 4.552-6.342 1.409-1.093-1.843-3.876-6.613-3.876-6.613v4.698c0 2.42-1.374 3.685-3.523 3.685h-4.968c-12.719 0-12.824-18.5-.176-18.5h2.818v5.239h-3.1c-5.179 0-5.743 8.022.352 8.022h2.82"/>
            <path stroke="#9F9F9F" stroke-width=".75" d="M235.13 21.677v14.996c0 .94-.881 1.156-1.339.506 0 0-5.99-9.865-7.504-12.43-.458-.65-1.41-.434-1.41.541v11.383c0 .94-.845 1.156-1.303.506 0 0-6.025-9.865-7.54-12.43-.458-.65-1.41-.434-1.41.541V36.6c0 .507-.387.94-.915.94h-5.32c-9.055 0-8.773-13.225-.212-13.225h3.277"/>
        </g>
        <g fill="#767E85" fill-rule="nonzero">
            <path d="M748.471 110v13.164h-13.157v26.327h-13.157v-26.327H709V110zM761.628 110h26.314v13.164h-26.314z"/>
            <path d="M787.943 136.327v13.164H748.47v-26.327h13.157v13.163z"/>
        </g>
        <g>
            <path fill="#767E85" fill-rule="nonzero" d="M453.568 151.048h2.892v.433h-2.43v1.148h2.36v.433h-2.36v1.581h-.462v-3.595zm3.794 0h2.221c.278 0 .625 0 .926.28.115.102.3.332.3.765 0 .867-.67.969-.879 1.02l1.203 1.505h-.601l-1.11-1.428h-1.574v1.428h-.463v-3.57h-.023zm.463.433v1.3h1.62c.254 0 .578 0 .763-.28a.616.616 0 0 0 .116-.382c0-.128-.024-.281-.093-.383-.139-.255-.393-.255-.601-.255h-1.805zm7.797 1.403c0 1.224-.926 1.836-1.967 1.836-.486 0-.948-.102-1.342-.408-.324-.255-.67-.689-.67-1.454 0-1.326.994-1.938 1.966-1.938 1.157.051 2.013.79 2.013 1.964zm-3.517-.026c0 .28.07.638.278.918.3.383.786.51 1.25.51 1.202 0 1.503-.841 1.503-1.453 0-.944-.694-1.48-1.573-1.454-.671.026-1.458.408-1.458 1.479zm4.465-1.81h.648l1.018 2.346c.162.382.185.459.324.816.116-.332.139-.434.3-.791l1.042-2.346h.625v3.596h-.44v-2.066c0-.688 0-.816.046-1.096-.092.28-.115.331-.254.637l-1.11 2.525h-.417l-1.018-2.321c-.185-.408-.232-.51-.324-.816.023.28.023.357.046.918v2.244h-.44v-3.646h-.046zm6.802 0h.486v3.595h-.486v-3.595zm1.69 0h1.619c.37 0 .81 0 1.25.408.254.229.531.688.531 1.377 0 .663-.277 1.096-.462 1.3-.463.51-1.088.51-1.643.51h-1.296v-3.595zm.462.408v2.728h.949c.416 0 .925-.025 1.272-.51.185-.255.255-.586.255-.892 0-.485-.162-.816-.348-.995-.3-.331-.67-.331-.971-.331h-1.157zm7.01 2.703c-.07.05-.116.127-.185.178-.231.204-.694.408-1.25.408-1.133 0-1.873-.867-1.873-1.887 0-.51.185-.867.277-1.02.301-.484.903-.841 1.666-.841.764 0 1.226.331 1.411.51.186.178.255.306.324.433l-.462.153c-.07-.102-.116-.178-.209-.28a1.52 1.52 0 0 0-1.04-.383c-.81 0-1.481.51-1.481 1.403 0 .382.115.663.23.841.348.612 1.042.663 1.25.663.301 0 .764-.102 1.088-.484.208-.255.231-.434.254-.663H481.1v-.434h1.827v1.887h-.393v-.485z"/>
            <path fill="#767E85" d="M399 147.626h84.878V104H399z"/>
            <path fill="#FFFFFE" d="M444.177 109.922h4.409v-.843h-14.33v.843h4.41v31.402h-4.41v1.054h14.33v-1.054h-4.41v-31.402M431.608 118.733h-1.102s-1.103-9.484-10.582-9.484c-8.82 0-9.48 8.009-9.48 14.331 0 10.327 1.102 18.757 9.92 18.757 9.48 0 11.023-9.484 11.023-9.484h.882v9.695h-.661l-1.984-1.897s-3.968 2.53-9.26 2.53c-9.48 0-16.534-7.588-16.534-16.86 0-9.695 6.614-17.704 15.653-17.704 5.731 0 8.598 2.95 8.598 2.95l2.645-2.318h.661l.22 9.484M478.728 125.9c0-7.588-5.733-17.283-14.992-17.283-9.04 0-14.992 9.695-14.992 17.282s5.953 17.282 14.992 17.282c9.26 0 14.992-9.695 14.992-17.282"/>
            <path fill="#767E85" d="M455.516 125.98c0-8.01-.661-16.44 8.378-16.44s8.598 8.43 8.598 16.44c0 7.797.44 16.227-8.598 16.227-9.04 0-8.378-8.43-8.378-16.228"/>
        </g>
        <g>
            <path fill="#767E85" d="M560.055 45.672v3.743h4.424v12.3h4.243v-12.3h4.4v-3.743h-13.067M588.768 47.73a8.147 8.147 0 0 0-2.702-1.707c-1.038-.407-2.175-.613-3.38-.613-1.219 0-2.36.206-3.39.613a8.296 8.296 0 0 0-2.701 1.707 7.776 7.776 0 0 0-1.795 2.622c-.428 1.014-.646 2.142-.646 3.353 0 1.212.218 2.34.646 3.353a7.763 7.763 0 0 0 1.795 2.622c.76.726 1.67 1.3 2.7 1.707 1.031.407 2.172.613 3.391.613 1.205 0 2.342-.206 3.38-.612a8.143 8.143 0 0 0 2.702-1.708 7.86 7.86 0 0 0 1.782-2.622c.429-1.013.646-2.14.646-3.353 0-1.211-.217-2.339-.646-3.353a7.864 7.864 0 0 0-1.782-2.622m-4.355 10.13a4.182 4.182 0 0 1-1.727.349c-.646 0-1.235-.117-1.75-.35a3.919 3.919 0 0 1-1.32-.953 4.379 4.379 0 0 1-.846-1.423 5.119 5.119 0 0 1-.302-1.778c0-.637.102-1.235.302-1.777.2-.542.485-1.02.847-1.423.36-.402.805-.723 1.32-.954.514-.232 1.103-.35 1.75-.35.63 0 1.212.118 1.726.35.515.23.959.552 1.32.954.362.403.646.881.846 1.423.2.543.303 1.141.303 1.777 0 .636-.102 1.234-.303 1.778a4.39 4.39 0 0 1-.846 1.423c-.36.4-.804.721-1.32.954M606.547 47.811c-.76-.686-1.677-1.22-2.722-1.587-1.044-.366-2.206-.552-3.454-.552h-6.7v16.042h6.724c1.233 0 2.387-.185 3.43-.551a7.865 7.865 0 0 0 2.722-1.6 7.389 7.389 0 0 0 1.793-2.528c.428-.982.645-2.111.645-3.354 0-1.242-.217-2.37-.645-3.354a7.278 7.278 0 0 0-1.793-2.516m-1.876 5.87c0 .574-.097 1.128-.29 1.647a4.047 4.047 0 0 1-.834 1.362c-.36.386-.812.7-1.343.931-.53.232-1.143.35-1.822.35h-2.468v-8.556h2.491c.71 0 1.34.11 1.872.327.53.216.976.521 1.329.906.353.386.621.84.798 1.35.177.511.267 1.078.267 1.683M620.455 45.672h-5.23l-5.96 15.924-.044.118h4.802l.78-2.283h6.098l.78 2.283h4.802l-6.006-15.985-.022-.057zm-.726 10.015h-3.778l1.89-5.61 1.888 5.61z"/>
            <g transform="translate(560)">
                <mask id="f" fill="#fff">
                    <use xlink:href="#e"/>
                </mask>
                <path fill="#767E85" d="M76.171 45.672l-3.333 5.766-3.38-5.766H64.66l6.057 9.581v6.462h4.243v-6.462l6.032-9.581h-4.82M10.463 38.444c1.035-15.524 13.926-27.836 29.622-27.836 15.756 0 28.687 12.406 29.636 28.016.038.61.057 1.223.057 1.843H80.17c0-.554-.01-1.106-.033-1.654C79.275 17.318 61.673.157 40.086.157 18.644.157 1.132 17.087.052 38.378A40.237 40.237 0 0 0 0 40.467h10.393c0-.68.023-1.355.07-2.023" mask="url(#f)"/>
            </g>
            <path fill="#767E85" d="M583.864 38.566c.94-8.163 7.857-14.52 16.221-14.52 8.409 0 15.354 6.423 16.236 14.645.065.585.095 1.175.095 1.776h10.391c0-.575-.017-1.143-.051-1.709-.877-14.045-12.482-25.163-26.67-25.163-14.169 0-25.759 11.086-26.666 25.1a26.674 26.674 0 0 0-.058 1.772h10.393c0-.644.036-1.277.11-1.901"/>
            <path fill="#767E85" d="M600.085 27.031c-6.514 0-11.94 4.688-13.12 10.892-.16.824-.241 1.674-.241 2.544h26.723c0-.649-.046-1.287-.136-1.911-.922-6.516-6.49-11.525-13.226-11.525"/>
        </g>
        <g fill="#333F48" fill-opacity=".75" fill-rule="nonzero">
            <path d="M1018.122 33.52c0 1.405.028 1.605.848 1.672l.453.04c.085.054.056.295-.028.335a52.809 52.809 0 0 0-1.852-.04c-.566 0-1.061.013-1.966.04-.085-.04-.113-.268 0-.335l.51-.04c.805-.066.876-.267.876-1.671v-5.977c0-.415 0-.428-.425-.428h-.778c-.608 0-1.386.027-1.74.335-.339.294-.48.588-.635.922-.114.08-.311.014-.368-.093a13.38 13.38 0 0 0 .537-1.993c.042-.026.226-.04.269 0 .085.428.55.415 1.202.415h5.727c.763 0 .89-.027 1.103-.375.07-.026.226-.013.254.04-.155.549-.254 1.632-.212 2.033-.057.107-.297.107-.368.027-.042-.334-.141-.829-.354-.976-.325-.228-.862-.335-1.64-.335h-1.004c-.424 0-.41.013-.41.455v5.95h.001zm9.022-2.312c-.68 0-.707.026-.707.427v1.886c0 1.404.07 1.59.862 1.671l.41.04c.085.054.057.295-.028.335a48.64 48.64 0 0 0-1.796-.04c-.608 0-1.089.026-1.64.04-.084-.04-.113-.254-.028-.335l.24-.04c.792-.133.82-.267.82-1.671v-4.814c0-1.404-.098-1.631-.834-1.685l-.367-.027c-.085-.053-.057-.294.028-.334.693.013 1.174.04 1.782.04.55 0 1.032-.013 1.64-.04.084.04.113.281.028.334l-.269.027c-.82.08-.848.281-.848 1.685v1.538c0 .414.028.428.707.428h4.044c.679 0 .707-.014.707-.428v-1.538c0-1.404-.028-1.604-.862-1.685l-.269-.027c-.085-.053-.057-.294.028-.334.65.027 1.131.04 1.711.04.551 0 1.032-.013 1.668-.04.085.04.113.281.029.334l-.297.027c-.82.08-.849.281-.849 1.685v4.814c0 1.404.028 1.577.849 1.671l.34.04c.084.054.056.295-.03.335a41.11 41.11 0 0 0-1.71-.04c-.58 0-1.09.013-1.711.04-.085-.04-.113-.254-.028-.335l.268-.04c.863-.133.863-.267.863-1.671v-1.886c0-.4-.028-.427-.707-.427h-4.044zm10.635-2.501c0-1.39-.028-1.59-.862-1.685l-.226-.027c-.085-.053-.057-.294.028-.334.608.027 1.089.04 1.668.04h2.659c.904 0 1.74 0 1.909-.04.085.228.17 1.19.226 1.779-.056.08-.283.106-.353.026-.213-.629-.34-1.096-1.075-1.27-.297-.067-.75-.08-1.372-.08h-1.018c-.424 0-.424.026-.424.535v2.674c0 .374.042.374.466.374h.82c.595 0 1.033-.026 1.202-.08.17-.053.27-.133.34-.468l.113-.548c.07-.08.311-.08.368.013 0 .321-.057.842-.057 1.35 0 .482.057.99.057 1.285-.057.093-.297.093-.368.013l-.127-.521c-.057-.241-.155-.441-.439-.508-.198-.053-.537-.067-1.089-.067h-.82c-.424 0-.466.014-.466.361v1.886c0 .708.042 1.163.268 1.39.17.16.467.308 1.711.308 1.09 0 1.5-.054 1.81-.201.255-.133.637-.602 1.004-1.297.1-.067.297-.027.354.093-.1.468-.453 1.498-.636 1.859-1.273-.027-2.532-.04-3.79-.04h-1.273c-.608 0-1.088.013-1.923.04-.084-.04-.113-.254-.028-.335l.467-.04c.806-.066.876-.267.876-1.671v-4.814zm15.78 2.5c-.68 0-.707.027-.707.428v1.886c0 1.404.07 1.59.862 1.671l.41.04c.085.054.057.295-.028.335a48.656 48.656 0 0 0-1.796-.04c-.608 0-1.089.026-1.64.04-.085-.04-.113-.254-.028-.335l.24-.04c.792-.133.82-.267.82-1.671v-4.814c0-1.404-.099-1.631-.834-1.685l-.368-.027c-.084-.053-.057-.294.028-.334.693.013 1.174.04 1.783.04.55 0 1.032-.013 1.64-.04.084.04.113.281.028.334l-.269.027c-.82.08-.848.281-.848 1.685v1.538c0 .414.028.428.707.428h4.044c.679 0 .707-.014.707-.428v-1.538c0-1.404-.028-1.604-.862-1.685l-.269-.027c-.085-.053-.057-.294.028-.334.65.027 1.131.04 1.711.04.552 0 1.032-.013 1.669-.04.084.04.112.281.028.334l-.297.027c-.82.08-.848.281-.848 1.685v4.814c0 1.404.028 1.577.848 1.671l.34.04c.084.054.056.295-.029.335-.679-.027-1.16-.04-1.71-.04-.58 0-1.09.013-1.712.04-.085-.04-.113-.254-.028-.335l.269-.04c.862-.133.862-.267.862-1.671v-1.886c0-.4-.028-.427-.707-.427h-4.044zm17.342-1.15c0-.828-.029-2.366-.269-2.767-.099-.16-.353-.255-.707-.281l-.354-.027c-.084-.093-.056-.267.028-.321.538.027 1.061.04 1.612.04.595 0 .976-.013 1.485-.04.113.067.1.241.029.321l-.34.027c-.353.026-.622.146-.707.32-.198.442-.198 1.98-.198 2.729v1.51c0 1.164-.198 2.394-.99 3.197-.608.628-1.654.976-2.7.976-.976 0-1.952-.174-2.645-.735-.75-.589-1.103-1.565-1.103-3.156v-3.156c0-1.391-.028-1.618-.848-1.685l-.354-.027c-.084-.053-.056-.281.029-.321.707.027 1.188.04 1.753.04.58 0 1.047-.013 1.74-.04.085.04.113.268.028.321l-.34.027c-.82.067-.848.294-.848 1.685v2.888c0 2.153.707 3.57 2.87 3.57 2.051 0 2.829-1.524 2.829-3.557v-1.537zm6.164.415c0 .361.042.361.466.361h.962c.58 0 1.032-.027 1.202-.08.155-.053.269-.12.354-.468l.127-.534c.07-.08.311-.08.368 0 0 .32-.057.855-.057 1.35 0 .482.057.99.057 1.298-.057.08-.27.08-.368 0l-.141-.521c-.071-.241-.184-.428-.453-.508-.198-.054-.551-.067-1.089-.067h-.962c-.424 0-.466.013-.466.361v1.859c0 1.404.028 1.604.862 1.671l.48.04c.086.054.057.295-.028.335a40.55 40.55 0 0 0-3.648 0c-.085-.04-.113-.254-.028-.335l.353-.04c.82-.093.849-.267.849-1.671v-4.816c0-1.404-.028-1.59-.849-1.685l-.226-.027c-.085-.053-.056-.294.028-.334.594.027 1.075.04 1.64.04h2.602c.905 0 1.726 0 1.91-.04 0 .615.014 1.257.042 1.765-.043.08-.24.12-.34.04-.113-.602-.282-1.096-.99-1.27-.31-.08-.777-.08-1.371-.08h-.863c-.424 0-.424.026-.424.535v2.821zm8.49 0c0 .361.042.361.467.361h.961c.58 0 1.032-.027 1.202-.08.155-.053.269-.12.354-.468l.127-.534c.07-.08.311-.08.368 0 0 .32-.057.855-.057 1.35 0 .482.057.99.057 1.298-.057.08-.27.08-.368 0l-.141-.521c-.071-.241-.184-.428-.453-.508-.198-.054-.55-.067-1.089-.067h-.961c-.425 0-.467.013-.467.361v1.859c0 1.404.028 1.604.862 1.671l.48.04c.086.054.057.295-.028.335a40.55 40.55 0 0 0-3.648 0c-.085-.04-.113-.254-.028-.335l.353-.04c.82-.093.849-.267.849-1.671v-4.816c0-1.404-.028-1.59-.849-1.685l-.226-.027c-.085-.053-.056-.294.028-.334.594.027 1.075.04 1.64.04h2.602c.905 0 1.726 0 1.91-.04 0 .615.014 1.257.042 1.765-.043.08-.24.12-.34.04-.113-.602-.282-1.096-.99-1.27-.31-.08-.777-.08-1.371-.08h-.862c-.425 0-.425.026-.425.535v2.821zm7.404-1.738c0-1.418-.028-1.645-.862-1.712l-.353-.027c-.085-.053-.057-.294.028-.334.707.027 1.188.04 1.782.04.565 0 1.046-.013 1.753-.04.085.04.113.281.028.334l-.353.027c-.834.067-.863.294-.863 1.712v4.76c0 1.417.029 1.604.863 1.698l.353.04c.085.054.057.295-.028.335a43.605 43.605 0 0 0-1.753-.04c-.594 0-1.075.013-1.782.04-.085-.04-.113-.254-.028-.335l.353-.04c.834-.093.862-.28.862-1.698v-4.76zm13.545 4.52c0 .4 0 1.992.042 2.34-.028.08-.113.147-.268.147-.17-.228-.58-.696-1.81-2.02l-3.281-3.53c-.382-.415-1.344-1.511-1.64-1.805h-.029c-.056.16-.07.468-.07.869v2.914c0 .63.014 2.368.254 2.769.085.146.368.227.722.254l.438.04c.085.107.071.268-.028.334a38.053 38.053 0 0 0-1.655-.04c-.594 0-.975.014-1.47.04-.1-.066-.113-.254-.028-.334l.381-.04c.325-.04.552-.12.623-.268.198-.48.183-2.112.183-2.755v-3.863c0-.374-.014-.655-.31-.963-.199-.187-.538-.28-.877-.321l-.24-.027c-.086-.08-.086-.28.027-.334.594.04 1.344.04 1.598.04.226 0 .467-.013.65-.04.283.682 1.952 2.447 2.418 2.942l1.372 1.457c.976 1.03 1.668 1.779 2.333 2.42h.028c.057-.066.057-.28.057-.561v-2.862c0-.629-.015-2.367-.283-2.768-.085-.12-.311-.2-.876-.268l-.241-.026c-.1-.08-.085-.295.028-.335.65.027 1.131.04 1.669.04.608 0 .976-.013 1.456-.04.113.067.113.255.028.335l-.198.026c-.452.067-.735.174-.792.281-.24.482-.212 2.14-.212 2.755v3.196zm11.465.909c0 .534.084.855.34.95.042.04.042.12-.015.16-.17 0-.424.053-.693.12-.75.187-1.768.347-2.531.347-1.682 0-3.224-.44-4.312-1.484a4.093 4.093 0 0 1-1.301-3.035c0-1.137.395-2.287 1.272-3.17.948-.935 2.347-1.564 4.483-1.564.805 0 1.555.147 1.796.201.268.054.707.147.876.12 0 .442.085 1.137.212 1.939-.042.107-.297.12-.381.04-.396-1.444-1.457-1.898-2.9-1.898-2.742 0-3.944 1.845-3.944 3.85 0 2.568 1.4 4.588 4.242 4.588.876 0 1.4-.174 1.555-.402.071-.093.141-.334.141-.762v-.534c0-1.123-.042-1.203-.919-1.298l-.622-.066c-.113-.054-.099-.295 0-.335.41.027 1.188.04 2.022.04.551 0 1.032-.013 1.499-.04.098.054.113.254.013.335l-.225.026c-.595.067-.609.442-.609 1.124v.748zm7.472-.642c0 1.404.028 1.604.848 1.671l.453.04c.084.054.056.295-.029.335a52.81 52.81 0 0 0-1.852-.04 64.1 64.1 0 0 0-1.966.04c-.084-.04-.113-.268 0-.335l.51-.04c.805-.066.876-.267.876-1.671v-5.977c0-.415 0-.428-.424-.428h-.778c-.609 0-1.386.027-1.74.335-.34.294-.48.588-.636.922-.113.08-.311.014-.368-.093.227-.602.439-1.458.537-1.993.043-.026.227-.04.269 0 .084.428.55.415 1.202.415h5.726c.764 0 .89-.027 1.104-.375.07-.026.226-.013.254.04-.155.549-.254 1.632-.212 2.033-.056.107-.297.107-.368.027-.042-.334-.14-.829-.354-.976-.325-.228-.861-.335-1.64-.335h-1.004c-.424 0-.41.013-.41.455v5.95h.002zm5.455-2.313c0-2.674 2.122-4.72 5.034-4.72 3.267 0 4.907 2.232 4.907 4.586 0 2.702-2.178 4.667-4.907 4.667-3.139 0-5.034-2.126-5.034-4.533zm8.527.28c0-2.205-1.033-4.586-3.734-4.586-1.47 0-3.38.95-3.38 3.878 0 1.979 1.019 4.547 3.804 4.547 1.698 0 3.31-1.204 3.31-3.839zm12.127 1.765c0 .401 0 1.993.043 2.34-.029.081-.113.148-.27.148-.169-.228-.58-.696-1.81-2.02l-3.28-3.53c-.382-.415-1.344-1.511-1.64-1.805h-.028c-.057.16-.071.468-.071.869v2.914c0 .63.014 2.368.255 2.769.084.146.367.227.72.254l.439.04c.085.107.07.268-.028.334a38.053 38.053 0 0 0-1.655-.04c-.594 0-.975.014-1.47.04-.099-.066-.113-.254-.028-.334l.381-.04c.326-.04.551-.12.623-.268.198-.48.184-2.112.184-2.755v-3.863c0-.374-.014-.655-.312-.963-.197-.187-.536-.28-.876-.321l-.24-.027c-.086-.08-.086-.28.028-.334.593.04 1.343.04 1.598.04.226 0 .466-.013.65-.04.283.682 1.951 2.447 2.418 2.942l1.372 1.457c.975 1.03 1.668 1.779 2.333 2.42h.028c.056-.066.056-.28.056-.561v-2.862c0-.629-.013-2.367-.283-2.768-.084-.12-.31-.2-.876-.268l-.24-.026c-.1-.08-.085-.295.027-.335.652.027 1.132.04 1.668.04.61 0 .977-.013 1.457-.04.113.067.113.255.029.335l-.199.026c-.452.067-.735.174-.792.281-.24.482-.212 2.14-.212 2.755v3.196zm10.279.268c0 1.404.028 1.577.933 1.671l.38.04c.086.067.057.295-.027.335a52.063 52.063 0 0 0-1.838-.04c-.595 0-1.103.013-1.726.04-.085-.04-.113-.254-.028-.335l.297-.04c.82-.107.848-.267.848-1.671v-4.934c0-1.136-.028-1.364-.665-1.431l-.508-.053c-.1-.08-.085-.281.028-.334.75-.094 1.626-.107 2.8-.107 1.173 0 2.05.146 2.714.534a2.282 2.282 0 0 1 1.131 2.007c0 1.23-.805 1.845-1.413 2.126-.623.28-1.373.401-1.952.401-.1-.04-.1-.241-.014-.268 1.527-.267 2.078-1.083 2.078-2.246 0-1.297-.806-2.14-2.276-2.14-.75 0-.764.054-.764.481v5.964h.002zm6.363-2.313c0-2.674 2.121-4.72 5.034-4.72 3.266 0 4.906 2.232 4.906 4.586 0 2.702-2.177 4.667-4.906 4.667-3.14 0-5.034-2.126-5.034-4.533zm8.526.28c0-2.205-1.032-4.586-3.732-4.586-1.471 0-3.38.95-3.38 3.878 0 1.979 1.018 4.547 3.803 4.547 1.698 0 3.31-1.204 3.31-3.839zm6.072 4.253c-1.187 0-1.937-.348-2.205-.495-.17-.294-.354-1.243-.383-1.872.071-.093.283-.12.34-.04.212.682.792 1.993 2.432 1.993 1.187 0 1.767-.735 1.767-1.538 0-.588-.126-1.243-1.159-1.872l-1.344-.828c-.707-.442-1.527-1.204-1.527-2.3 0-1.27 1.047-2.3 2.886-2.3.437 0 .947.08 1.314.174.184.053.381.08.495.08.127.321.254 1.07.254 1.631-.056.08-.282.12-.353.04-.184-.641-.566-1.51-1.923-1.51-1.386 0-1.683.869-1.683 1.484 0 .775.68 1.337 1.202 1.645l1.131.669c.89.52 1.768 1.297 1.768 2.567 0 1.469-1.173 2.472-3.012 2.472zm10.043-2.22c0 1.404.028 1.604.848 1.671l.452.04c.085.054.057.295-.028.335a52.758 52.758 0 0 0-1.853-.04c-.565 0-1.06.013-1.965.04-.084-.04-.113-.268 0-.335l.508-.04c.807-.066.877-.267.877-1.671v-5.977c0-.415 0-.428-.424-.428h-.778c-.608 0-1.386.027-1.74.335-.339.294-.48.588-.635.922-.114.08-.312.014-.368-.093a13.51 13.51 0 0 0 .537-1.993c.043-.026.227-.04.268 0 .085.428.552.415 1.202.415h5.727c.764 0 .89-.027 1.103-.375.07-.026.227-.013.255.04-.155.549-.255 1.632-.212 2.033-.057.107-.297.107-.368.027-.043-.334-.141-.829-.353-.976-.326-.228-.863-.335-1.64-.335h-1.005c-.424 0-.41.013-.41.455v5.95h.002z"/>
        </g>
        <g>
            <path fill="#333F48" fill-opacity=".65" d="M871.353 54.647h94.071V7.582h-94.071z"/>
            <g fill="#FFFFFE">
                <path d="M915.613 18.479l.06 2.292-.533.03c-.044-1.405-.34-1.598-2.469-1.598h-.458v8.091c0 1.11.28 1.406 1.375 1.435l.03.385c-1.036-.015-1.819-.015-2.336-.015-.532 0-1.346 0-2.41.015l.03-.385c1.093-.03 1.374-.325 1.374-1.435v-8.09h-.532c-2.188 0-2.483.192-2.513 1.597l-.547-.03.06-2.292c2.01.014 3.503.029 4.508.029.96 0 2.424-.015 4.361-.03M916.009 28.759c.99 0 1.123-.192 1.138-1.583v-6.76c-.015-1.39-.148-1.583-1.138-1.583l-.03-.354c1.345-.075 1.656-.119 2.868-.34v4.585c.784-.873 1.449-1.213 2.321-1.213 1.449 0 2.247.917 2.247 2.603v3.062c.015 1.39.148 1.583 1.138 1.583l.03.355c-.857-.03-1.508-.06-1.937-.06-.414 0-1.02.03-1.833.06l.03-.355c.783-.119.857-.267.872-1.583v-2.248c0-1.864-.325-2.485-1.3-2.485-.548 0-1.11.34-1.346.858a3.62 3.62 0 0 0-.207.562c-.015.074-.015.133-.015.162v3.151c0 1.316.089 1.464.872 1.583l.03.355c-.828-.03-1.434-.06-1.848-.06-.429 0-1.08.03-1.922.06l.03-.355M932.032 27.664c-.917 1.14-1.818 1.612-3 1.612-2.056 0-3.445-1.508-3.445-3.742 0-2.381 1.433-4.023 3.503-4.023 1.139 0 1.937.414 2.484 1.316.37.622.473 1.05.487 2.115h-4.7c.059 2.249.872 3.52 2.232 3.52.813 0 1.493-.37 2.217-1.212l.222.414zm-4.716-3.284c1.36-.029 1.774-.059 3.15-.207-.178-1.435-.725-2.145-1.657-2.145-.887 0-1.345.74-1.493 2.352zM876.688 43.345c1.197-.033 1.508-.361 1.508-1.592v-7.759c0-1.23-.311-1.558-1.508-1.59l-.05-.427 2.542.032 4-.049 1.05.017.065 2.411-.656.05c-.115-1.494-.393-1.658-2.754-1.658h-.36l-.165.017v4.462c.312 0 .558.016.705.016.262.017.508.033.754.033 1.312 0 1.607-.28 1.623-1.526H884c-.05 1.001-.05 1.51-.05 2.002 0 .393 0 .951.017 1.69h-.525c-.065-1.182-.328-1.411-1.59-1.428l-.885-.016-.623.033v3.46c0 1.395.082 1.46 1.459 1.46 1.852 0 2.394-.41 2.557-2l.656.032-.377 2.756-1.262.017-4.017-.033-2.721.016.049-.426M893.473 42.607c-.935.967-1.705 1.345-2.787 1.345-2.164 0-3.574-1.69-3.574-4.265 0-2.658 1.492-4.347 3.852-4.347.623 0 1.263.114 2.246.376l.033 1.97-.737.048c-.296-1.476-.59-1.82-1.542-1.82-1.23 0-1.868 1.099-1.868 3.215 0 2.493.77 3.888 2.163 3.888.722 0 1.328-.312 1.968-1.001l.246.59M895.225 39.965v-.246c0-2.772 1.492-4.38 4.049-4.38 2.377 0 4.05 1.772 4.05 4.315 0 2.575-1.624 4.298-4.1 4.298-2.344 0-3.917-1.575-4-3.987m2.033-.18c.164 2.346.935 3.609 2.197 3.609 1.18 0 1.886-1.23 1.886-3.297 0-2.428-.968-4.134-2.312-4.134-1.197 0-1.803 1.033-1.803 3.084 0 .246 0 .492.032.738M905.32 43.377c1.1 0 1.263-.213 1.263-1.755v-3.806c0-1.525-.164-1.738-1.262-1.755l-.033-.377c1.46-.082 1.787-.131 3.033-.394l.082 1.477c.934-1.05 1.656-1.427 2.656-1.427 1.59 0 2.492 1.033 2.492 2.887v3.395c-.017.131-.017.263-.017.394 0 1.05.279 1.361 1.279 1.361l.033.394c-.951-.033-1.672-.066-2.148-.066-.459 0-1.148.033-2.05.066l.034-.394c.868-.13.967-.295.967-1.755l.016-1.033v-1.46c0-2.067-.377-2.756-1.442-2.756-.64 0-1.18.344-1.509.951-.13.246-.245.64-.245.804v3.494c.016 1.46.098 1.624.967 1.755l.049.394c-.918-.033-1.607-.066-2.066-.066-.475 0-1.18.033-2.131.066l.033-.394M916.29 39.965v-.246c0-2.772 1.49-4.38 4.048-4.38 2.378 0 4.05 1.772 4.05 4.315 0 2.575-1.623 4.298-4.099 4.298-2.344 0-3.918-1.575-4-3.987m2.033-.18c.164 2.346.934 3.609 2.197 3.609 1.18 0 1.885-1.23 1.885-3.297 0-2.428-.967-4.134-2.312-4.134-1.196 0-1.803 1.033-1.803 3.084 0 .246 0 .492.033.738M926.385 43.377c1.099 0 1.263-.213 1.263-1.755v-3.806c0-1.525-.164-1.738-1.263-1.755l-.032-.377c1.459-.082 1.786-.131 3.032-.394l.083 1.477c.934-1.034 1.655-1.427 2.622-1.427 1.115 0 1.77.459 2.263 1.558 1-1.149 1.738-1.558 2.738-1.558 1.557 0 2.442 1.05 2.442 2.887v3.395c0 .131-.016.263-.016.394 0 1.05.295 1.361 1.278 1.361l.034.394c-.952-.033-1.673-.066-2.149-.066-.458 0-1.13.033-2.032.066l.033-.394c.869-.13.95-.295.967-1.755V39.13c0-2.034-.36-2.756-1.377-2.756-.607 0-1.23.394-1.492.951-.082.197-.164.394-.213.624-.016.082-.033.147-.033.18v3.494c0 1.46.099 1.624.968 1.755l.032.394c-.869-.033-1.524-.066-1.967-.066-.426 0-1.066.033-1.918.066l.033-.394c.868-.13.95-.295.967-1.755V39.13c0-2.034-.36-2.756-1.377-2.756-.623 0-1.18.36-1.492.951-.131.263-.246.64-.246.804v3.494c.016 1.46.098 1.624.967 1.755l.033.394c-.902-.033-1.59-.066-2.05-.066-.475 0-1.18.033-2.13.066l.032-.394M945.58 35.29v5.299l.017 1.033c0 1.542.147 1.755 1.262 1.755l.033.394c-1.016-.033-1.754-.066-2.262-.066-.492 0-1.23.033-2.23.066l.033-.394c1.098 0 1.262-.213 1.262-1.755l.017-1.033v-1.723l-.017-1.05c0-1.525-.164-1.738-1.262-1.755l-.033-.377c1.509-.098 1.853-.148 3.18-.394m-2.114-2.74c0-.622.492-1.115 1.098-1.115.607 0 1.098.509 1.098 1.116 0 .623-.475 1.115-1.098 1.115-.623 0-1.098-.476-1.098-1.115M948.906 43.476l-.065-1.673.836-.033c.377 1.263.623 1.509 1.492 1.509.754 0 1.246-.394 1.246-.984 0-.558-.345-.984-1.377-1.69-.525-.36-.886-.607-1.082-.754-.427-.328-.738-.722-.902-1.165a2.383 2.383 0 0 1-.148-.886c0-1.493 1.017-2.46 2.558-2.46.574 0 .902.049 2.23.36l.032 1.657-.836.033c-.197-1.099-.541-1.476-1.311-1.476-.738 0-1.263.426-1.263 1.033 0 .574.262.919 1.115 1.46.77.509 1.377.968 1.787 1.329.459.443.721 1 .721 1.64 0 1.46-1.23 2.576-2.803 2.576-.607 0-1.18-.132-2.23-.476M955.677 35.815c1.295-.099 1.804-.656 2.18-2.362h.738v2.214h2.066l-.23.903h-1.836v4.035c0 2.018.263 2.493 1.377 2.493.263 0 .509-.032.902-.147v.475c-.557.312-1.328.493-2.114.493-.722 0-1.41-.41-1.706-1.017-.245-.509-.327-1.017-.327-2.133v-4.2h-1.05v-.754"/>
            </g>
        </g>
        <g>
            <g fill="#767E85">
                <path d="M573 156.424V91h53.972v65.424H573zm48.543-34.322h-8.702v11.031c0 1.131-.473 1.604-1.418 1.604-.944 0-1.418-.473-1.418-1.604v-28.562c0-.943.472-1.509 1.418-1.509s1.418.566 1.418 1.509v9.995h8.701v-9.616c0-4.715-2.364-8.11-9.741-8.11-7.378 0-10.972 2.83-10.972 8.11v27.807c0 5.373 3.6 8.203 10.972 8.203 7.371 0 9.741-3.394 9.741-8.203v-10.655h.001zm-22.604-16.973c0-5.28-2.553-8.11-8.607-8.11h-11.728v43.752h9.174v-16.877h2.554c6.047 0 8.607-2.829 8.607-8.11V105.13zm-11.161 12.447V103.34c2.08 0 2.933.566 2.933 2.452v9.33c0 1.89-.853 2.455-2.933 2.455zM573 187.806h53.974v-30.531H573z"/>
            </g>
            <g fill="#FFF">
                <path d="M598.993 166.107c.007-2.336 1.61-3.89 4.007-3.88 2.38.008 3.959 1.578 3.955 3.933-.003 2.318-1.643 3.912-4.008 3.897-2.371-.015-3.961-1.603-3.954-3.95zm3.97-2.232c-1.303.002-2.17.918-2.167 2.288.002 1.35.899 2.324 2.155 2.34 1.276.016 2.215-.991 2.204-2.363-.012-1.37-.881-2.268-2.192-2.265zM582.37 166.048c0-1.07.027-2.141-.01-3.21-.019-.507.163-.63.637-.61.815.036 1.633.002 2.45.018 3.145.059 4.137 2.054 3.73 4.697-.266 1.74-1.537 2.722-3.548 2.85-.93.058-1.866.004-2.8.03-.385.012-.469-.151-.464-.496.015-1.093.006-2.186.006-3.28zm1.802-.019v.974c0 1.41 0 1.41 1.42 1.26 1.221-.13 1.817-.81 1.842-2.105.028-1.456-.475-2.134-1.746-2.306-.366-.05-.743-.017-1.114-.038-.303-.018-.412.112-.406.407.013.603.004 1.205.004 1.808zM598.107 181.109c-2.4-.007-3.964-1.551-3.966-3.914-.002-2.303 1.654-3.923 4-3.913 2.343.01 3.962 1.623 3.96 3.948-.003 2.348-1.585 3.886-3.994 3.879zm2.19-3.863c.005-1.367-.877-2.32-2.15-2.322-1.28-.003-2.19.94-2.198 2.283-.01 1.408.871 2.351 2.192 2.347 1.288-.005 2.15-.929 2.156-2.308zM614.265 169.724c-.114.05-.133.065-.154.066-1.675.11-1.71.126-2.527-1.537-.315-.639-.688-.905-1.393-.82-.337.041-.452.145-.432.464.016.254.004.51.004.767 0 1.15-.337 1.4-1.482 1.148-.26-.058-.271-.207-.272-.398 0-2.255.004-4.511-.006-6.767-.001-.354.17-.424.475-.42 1.143.01 2.287-.011 3.43.012 1.199.025 2.044.65 2.374 1.705.356 1.136.021 2.378-.91 2.996-.432.286-.409.478-.173.858.378.607.697 1.25 1.066 1.926zm-4.503-4.865c0 .256.002.512 0 .768-.003.202.022.392.282.385.582-.016 1.17.077 1.745-.063.64-.155.832-.605.791-1.213-.042-.624-.403-.922-.993-.958-.466-.028-.935.005-1.401-.016-.356-.017-.444.16-.426.468.012.209.002.42.002.629zM586.537 177.183c0-1.071.018-2.143-.009-3.213-.011-.44.095-.623.578-.608 1.444.045 1.17-.146 1.182 1.181.016 1.75.004 1.75 1.793 1.75 1.656 0 1.656 0 1.656-1.671v-.14c0-1.115.331-1.358 1.455-1.114.3.066.288.254.288.463.001 2.235-.005 4.47.007 6.704.002.375-.151.462-.5.475-1.25.049-1.228.06-1.26-1.181-.015-.615.301-1.436-.155-1.787-.386-.296-1.166-.09-1.772-.092-1.508-.005-1.508-.002-1.508 1.469v.698c0 .886-.003.842-.913.9-.667.043-.9-.143-.857-.832.06-.998.015-2.002.015-3.002M612.866 177.117c0-1.094.017-2.188-.009-3.28-.01-.428.123-.562.555-.555 1.493.024 2.987.021 4.48.001.412-.005.581.087.566.54-.047 1.32.139 1.065-1.055 1.086-.677.013-1.357.043-2.03-.01-.59-.045-.732.156-.743.732-.012.631.237.727.777.698.745-.041 1.494.018 2.24-.02.708-.035.49.462.497.805.007.33.183.781-.477.752-.839-.038-1.681.016-2.52-.018-.718-.03-.464.478-.485.813-.022.345-.148.765.496.736.908-.042 1.822.028 2.729-.025.619-.035.628.297.59.726-.033.374.192.858-.55.836a102.946 102.946 0 0 0-4.48-.004c-.46.007-.605-.143-.591-.603.032-1.07.01-2.14.01-3.21M576.128 166.012c0-1.071.016-2.143-.007-3.213-.01-.407.084-.58.536-.573 1.495.026 2.99.022 4.484.002.416-.006.58.106.568.547-.035 1.288.088 1.015-1.04 1.037-.7.013-1.404.047-2.1-.011-.616-.052-.653.241-.67.731-.02.55.142.732.701.697.768-.048 1.543.019 2.311-.022.645-.035.514.397.493.739-.02.335.233.846-.484.817-.793-.032-1.592.04-2.381-.023-.668-.054-.644.314-.627.764.015.41-.116.842.596.793.907-.063 1.822.015 2.731-.027.646-.03.515.397.492.737-.022.331.244.831-.48.817-1.54-.03-3.083-.021-4.624-.002-.41.006-.514-.144-.506-.528.02-1.094.007-2.188.007-3.282"/>
                <path d="M617.626 162.233c.985-.007 1.842.167 2.637.615.31.175.401.353.119.629-.082.08-.148.182-.201.284-.266.51-.567.635-1.143.34-.62-.316-1.338-.393-2.05-.236-.32.07-.589.226-.621.573-.036.382.217.625.557.704.77.179 1.56.278 2.326.476 1.233.32 1.78 1.089 1.686 2.29-.063.82-.503 1.426-1.237 1.73-1.807.745-3.551.567-5.205-.492-.359-.23-.294-.405-.065-.704.393-.515.68-.857 1.416-.364.763.513 1.71.588 2.636.374.368-.085.665-.257.665-.688 0-.396-.278-.592-.61-.667-.68-.156-1.377-.243-2.056-.406-1.329-.318-1.9-1.012-1.88-2.224.017-.98.555-1.706 1.52-2.032a4.01 4.01 0 0 1 1.506-.202M608.916 181.11c-2.37-.005-3.818-1.655-3.676-4.188.132-2.331 1.928-3.86 4.25-3.615.959.102 1.807.432 2.483 1.152.209.221.24.366-.026.547-.192.13-.388.269-.543.44-.32.35-.547.307-.905-.012-.74-.657-1.882-.69-2.6-.163-.815.599-1.128 2.008-.68 3.066.38.897 1.19 1.335 2.219 1.19.536-.075.99-.324 1.262-.79.212-.365.393-.395.766-.2 1.076.562 1.098.622.24 1.51-.764.792-1.712 1.094-2.79 1.063M582.659 181.114c-2.422.001-3.923-1.668-3.754-4.099.174-2.494 1.96-4.006 4.361-3.693.856.112 1.62.406 2.247 1.028.284.282.404.497-.017.743-.14.081-.265.192-.38.307-.342.346-.589.358-1.017.006-1.312-1.083-3.046-.393-3.352 1.276-.32 1.742.629 2.98 2.193 2.862.593-.044 1.111-.273 1.404-.793.24-.427.47-.364.828-.181 1.018.52 1.044.59.255 1.426-.767.813-1.726 1.162-2.768 1.118M596.252 162.242c.958 0 1.916.016 2.873-.007.402-.01.515.134.522.523.02 1.063.037 1.062-1.018 1.063-1.516 0-1.516 0-1.516 1.537 0 1.28-.02 2.561.01 3.841.011.476-.108.645-.616.635-1.194-.024-1.194.004-1.194-1.168 0-1.444-.01-2.887.007-4.33.005-.387-.102-.549-.512-.523-.489.031-.982-.014-1.47.014-.41.024-.633-.083-.567-.535a1.245 1.245 0 0 0 0-.348c-.074-.527.098-.746.68-.715.93.05 1.867.013 2.801.013M602.475 177.119c0-1.07.023-2.14-.011-3.208-.016-.496.152-.686.635-.615.046.007.093 0 .14.001 1.122.012.975-.123.978.952.007 2-.018 3.999.016 5.998.01.556-.155.772-.704.687a1.208 1.208 0 0 0-.35 0c-.529.075-.746-.097-.718-.677.049-1.044.014-2.092.014-3.138M590 166.055c0-1.046.034-2.094-.014-3.137-.027-.577.187-.754.716-.673.022.003.046 0 .07 0 1.112.014.976-.129.979.952.006 1.976-.014 3.952.012 5.928.008.52-.099.802-.68.702a1.09 1.09 0 0 0-.348 0c-.561.09-.78-.097-.75-.704.052-1.02.015-2.045.014-3.068M623.792 163.603c.072.793-.045 1.655-1.053 2.13-.277.13-.466.192-.588-.161-.081-.235-.39-.474.07-.66a.952.952 0 0 0 .385-.29c.175-.23.288-.525-.18-.479-.57.056-.567-.242-.559-.662.026-1.256.013-1.232 1.26-1.254.51-.01.749.116.669.655-.027.182-.004.37-.004.721"/>
            </g>
            <path fill="#FEFCFC" d="M591.967 150.785c-.132.816-.277 1.63-.39 2.448-.067.471-.204.767-.78.769-.576.001-.678-.289-.769-.763-.177-.932-.154-1.914-.672-3.047 0 1.2-.02 2.128.008 3.054.016.518-.115.756-.7.758-.625.001-.665-.316-.662-.792.013-2.029.014-4.057 0-6.086-.004-.512.008-.945.712-.861.54.064 1.225-.242 1.343.704.157 1.255.39 2.5.804 3.787.226-1.205.545-2.403.653-3.619.096-1.095.801-.843 1.442-.871.878-.039.633.61.637 1.06.015 1.944-.009 3.889.01 5.832.005.547-.079.864-.75.845-.622-.017-.669-.335-.657-.81.019-.795.005-1.59.005-2.386l-.234-.022"/>
            <path fill="#FEFBFB" d="M619.478 150.633c-.136.86-.28 1.72-.403 2.583-.066.456-.172.785-.761.786-.56 0-.688-.252-.783-.743-.18-.939-.168-1.922-.685-3.125 0 1.165.003 2.019 0 2.872-.003.488.152 1.021-.702 1-.757-.017-.651-.473-.651-.928-.002-1.985.008-3.97-.007-5.956-.004-.52.024-.936.72-.859.546.06 1.226-.225 1.349.707.165 1.253.397 2.498.838 3.789.184-1.074.413-2.143.537-3.224.107-.936.42-1.399 1.491-1.296 1.152.111.657.907.674 1.406.06 1.688.053 3.38.003 5.068-.013.47.439 1.267-.649 1.282-1.171.017-.664-.839-.718-1.353-.07-.659-.017-1.33-.017-1.997l-.236-.012"/>
            <path fill="#FEFCFC" d="M614.732 152.865c-.568 1.077-1.46 1.45-2.637 1.208-1.196-.244-1.45-1.184-1.569-2.178-.14-1.174-.159-2.357 0-3.533.136-1.004.429-1.93 1.588-2.184 1.181-.258 2.057.185 2.618 1.25.657 1.813.658 3.625 0 5.437zm-1.258-2.655c-.056-.778-.102-1.579-.178-2.376-.034-.354-.188-.679-.605-.692-.357-.01-.543.274-.58.572-.195 1.598-.204 3.2.004 4.798.04.303.238.576.586.563.41-.015.57-.326.604-.691.066-.714.112-1.43.17-2.174z"/>
            <path fill="#FEFCFB" d="M600.31 150.113c0 .634-.03 1.27.01 1.9.028.454.057.982.666 1.071.332.05.58-.188.656-.488.128-.505.434-1.185-.122-1.47-.525-.268-.668-.624-.44-.957.353-.519 1.001-.188 1.519-.237.515-.048.48.348.482.69.002.38.036.765-.007 1.14-.083.727.244 1.493-.202 2.186-.725-.544-1.33.203-2.003.186-1.01-.026-1.688-.498-1.915-1.511a10.944 10.944 0 0 1 .04-5.022c.278-1.14 1.249-1.669 2.453-1.45 1.141.206 1.448 1.024 1.504 2.04.028.505-.093.79-.684.792-.524.003-.78-.118-.745-.7.028-.45.06-1.091-.543-1.103-.687-.014-.627.683-.665 1.16-.046.588-.01 1.182-.01 1.773h.005z"/>
            <path fill="#FDFAFA" d="M607.218 150.268c.043.643.086 1.358.142 2.071.028.365.179.695.577.723.488.034.627-.361.678-.749.045-.332.03-.673.03-1.01-.002-.35.103-.588.513-.507.336.066.74-.085.846.507.245 1.345-.377 2.562-1.523 2.794-1.447.293-2.396-.411-2.647-1.977-.229-1.43-.207-2.865.068-4.28.253-1.302 1.232-1.92 2.524-1.69 1.084.19 1.645 1.117 1.542 2.39-.042.522-.265.63-.717.618-.408-.01-.784.005-.725-.575a2.218 2.218 0 0 0-.013-.505c-.052-.408-.037-.94-.62-.906-.464.026-.514.494-.542.877-.052.714-.087 1.43-.133 2.22"/>
            <path fill="#FEFCFC" d="M584.73 150.113c0 .717-.014 1.434.005 2.15.012.41.198.807.636.81.45.003.594-.405.63-.814.008-.084 0-.17.019-.252.112-.498-.414-1.401.801-1.192 1.105.19.523.975.515 1.489-.018 1.146-.667 1.783-1.832 1.831-1.172.05-1.977-.46-2.204-1.64-.297-1.547-.27-3.115.015-4.656.242-1.311 1.099-1.863 2.389-1.7 1.157.145 1.677.917 1.63 2.29-.018.531-.159.732-.723.74-.603.01-.726-.257-.668-.758a.999.999 0 0 0-.004-.253c-.059-.412-.047-.982-.57-.99-.615-.01-.616.598-.64 1.05-.034.63-.009 1.263-.009 1.895h.01"/>
            <path fill="#FEFCFB" d="M597.902 153.983c-.494.012-.933.057-.971-.578-.026-.42-.05-.851-.668-.88-.638-.031-.664.405-.703.823-.072.768-.622.695-1.117.616-.653-.103-.3-.61-.247-.904.366-2.036.802-4.06 1.153-6.099.103-.6.363-.746.919-.75.581-.005.815.224.924.782.404 2.072.837 4.14 1.29 6.202.13.592.058.919-.58.788zm-2.032-2.554h.772l-.421-2.226-.35 2.226z"/>
            <path fill="#FEFCFC" d="M579.945 146.266c2.348.011 3.343 1.487 2.558 3.622-.268.73-.804 1.106-1.53 1.112-.761.006-.917.363-.85 1.016.043.417-.02.844.017 1.263.048.56-.19.74-.73.716-.453-.021-.815.006-.806-.642.03-2.15.002-4.299.016-6.448.008-1.199.98-.348 1.325-.639zm.138 2.309c.294.383-.432 1.226.454 1.266.588.027.596-.704.593-1.21-.003-.546.014-1.295-.69-1.253-.63.037-.148.775-.357 1.197z"/>
            <path fill="#FFF" d="M604.521 152.235c.718-.135.84.246.836.868-.003.597-.08.918-.812.922-.747.003-.923-.26-.92-.957.004-.68.234-.94.896-.833"/>
        </g>
    </g>
</svg>
